<svg class="animated" id="freepik_stories-laboratory" xmlns="http://www.w3.org/2000/svg" viewBox="0 0 500 500" version="1.1" xmlns:xlink="http://www.w3.org/1999/xlink" xmlns:svgjs="http://svgjs.com/svgjs"><style>svg#freepik_stories-laboratory:not(.animated) .animable {opacity: 0;}svg#freepik_stories-laboratory.animated #freepik--background-complete--inject-1 {animation: 1s 1 forwards cubic-bezier(.36,-0.01,.5,1.38) fadeIn;animation-delay: 0s;}svg#freepik_stories-laboratory.animated #freepik--Shadow--inject-1 {animation: 1s 1 forwards cubic-bezier(.36,-0.01,.5,1.38) fadeIn;animation-delay: 0s;}svg#freepik_stories-laboratory.animated #freepik--character-2--inject-1 {animation: 1s 1 forwards cubic-bezier(.36,-0.01,.5,1.38) fadeIn;animation-delay: 0s;}svg#freepik_stories-laboratory.animated #freepik--Table--inject-1 {animation: 1s 1 forwards cubic-bezier(.36,-0.01,.5,1.38) fadeIn;animation-delay: 0s;}svg#freepik_stories-laboratory.animated #freepik--Cloud--inject-1 {animation: 1s 1 forwards cubic-bezier(.36,-0.01,.5,1.38) fadeIn;animation-delay: 0s;}svg#freepik_stories-laboratory.animated #freepik--character-1--inject-1 {animation: 1s 1 forwards cubic-bezier(.36,-0.01,.5,1.38) fadeIn;animation-delay: 0s;}            @keyframes fadeIn {                0% {                    opacity: 0;                }                100% {                    opacity: 1;                }            }        </style><g id="freepik--background-complete--inject-1" class="animable animator-active" style="transform-origin: 250px 228.23px;"><rect x="416.78" y="398.49" width="33.12" height="0.25" style="fill: rgb(235, 235, 235); transform-origin: 433.34px 398.615px;" id="elg6ezdt6mon4" class="animable"></rect><rect x="322.53" y="401.21" width="8.69" height="0.25" style="fill: rgb(235, 235, 235); transform-origin: 326.875px 401.335px;" id="elwlpfbozco1s" class="animable"></rect><rect x="396.59" y="389.21" width="19.19" height="0.25" style="fill: rgb(235, 235, 235); transform-origin: 406.185px 389.335px;" id="elwbflpmqchv" class="animable"></rect><rect x="52.46" y="390.89" width="43.19" height="0.25" style="fill: rgb(235, 235, 235); transform-origin: 74.055px 391.015px;" id="el5zf1wx6gr9x" class="animable"></rect><rect x="104.56" y="390.89" width="6.33" height="0.25" style="fill: rgb(235, 235, 235); transform-origin: 107.725px 391.015px;" id="elwg1q79c6e3p" class="animable"></rect><rect x="131.47" y="395.11" width="93.68" height="0.25" style="fill: rgb(235, 235, 235); transform-origin: 178.31px 395.235px;" id="el7b1fhq7zaxh" class="animable"></rect><path d="M237,337.8H43.92a5.71,5.71,0,0,1-5.71-5.71V60.66A5.71,5.71,0,0,1,43.92,55H237a5.71,5.71,0,0,1,5.71,5.71V332.09A5.71,5.71,0,0,1,237,337.8ZM43.92,55.2a5.47,5.47,0,0,0-5.46,5.46V332.09a5.47,5.47,0,0,0,5.46,5.46H237a5.47,5.47,0,0,0,5.46-5.46V60.66A5.47,5.47,0,0,0,237,55.2Z" style="fill: rgb(235, 235, 235); transform-origin: 140.46px 196.4px;" id="el3qvipp5grb6" class="animable"></path><path d="M453.31,337.8H260.21a5.72,5.72,0,0,1-5.71-5.71V60.66A5.72,5.72,0,0,1,260.21,55h193.1A5.71,5.71,0,0,1,459,60.66V332.09A5.71,5.71,0,0,1,453.31,337.8ZM260.21,55.2a5.47,5.47,0,0,0-5.46,5.46V332.09a5.47,5.47,0,0,0,5.46,5.46h193.1a5.47,5.47,0,0,0,5.46-5.46V60.66a5.47,5.47,0,0,0-5.46-5.46Z" style="fill: rgb(235, 235, 235); transform-origin: 356.75px 196.4px;" id="elup86bxvckt" class="animable"></path><rect y="382.4" width="500" height="0.25" style="fill: rgb(235, 235, 235); transform-origin: 250px 382.525px;" id="elj2stkkwtuu9" class="animable"></rect><g id="elvgmti6avvxf"><rect x="234.69" y="263.34" width="230.65" height="7.16" style="fill: rgb(240, 240, 240); transform-origin: 350.015px 266.92px; transform: rotate(90deg);" class="animable" id="el00fq0nfmiz92g"></rect></g><g id="eli002yzwsi6"><rect x="311.01" y="263.34" width="230.65" height="7.16" style="fill: rgb(245, 245, 245); transform-origin: 426.335px 266.92px; transform: rotate(90deg);" class="animable" id="elny15rjpe3o"></rect></g><g id="el9h6cq9yxfbg"><rect x="-41.65" y="263.34" width="230.65" height="7.16" style="fill: rgb(230, 230, 230); transform-origin: 73.675px 266.92px; transform: rotate(90deg);" class="animable" id="elafonivpw13o"></rect></g><rect x="70.09" y="341.83" width="83.48" height="10.55" style="fill: rgb(230, 230, 230); transform-origin: 111.83px 347.105px;" id="elacinmn7wxj" class="animable"></rect><rect x="153.57" y="341.83" width="276.34" height="10.55" style="fill: rgb(245, 245, 245); transform-origin: 291.74px 347.105px;" id="elnfjyzdff3ig" class="animable"></rect><rect x="70.09" y="246.71" width="83.48" height="10.55" style="fill: rgb(230, 230, 230); transform-origin: 111.83px 251.985px;" id="elgdhcs82pir6" class="animable"></rect><rect x="153.57" y="246.71" width="276.34" height="10.55" style="fill: rgb(245, 245, 245); transform-origin: 291.74px 251.985px;" id="el5cqdwx4vyw4" class="animable"></rect><rect x="70.09" y="151.59" width="83.48" height="10.55" style="fill: rgb(230, 230, 230); transform-origin: 111.83px 156.865px;" id="elv6cfh5aszlh" class="animable"></rect><rect x="153.57" y="151.59" width="276.34" height="10.55" style="fill: rgb(245, 245, 245); transform-origin: 291.74px 156.865px;" id="el0dgta2hzjhe" class="animable"></rect><g id="elm5g4pd3607p"><rect x="34.66" y="263.34" width="230.65" height="7.16" style="fill: rgb(230, 230, 230); transform-origin: 149.985px 266.92px; transform: rotate(90deg);" class="animable" id="el56kqodr58kv"></rect></g><polygon points="117.97 177.32 97.47 177.32 96.47 167.65 118.97 167.65 117.97 177.32" style="fill: rgb(230, 230, 230); transform-origin: 107.72px 172.485px;" id="elr8l2f8eyvze" class="animable"></polygon><path d="M97.14,186.72h21.17a12.08,12.08,0,0,1,12.08,12.08v33.8a14.51,14.51,0,0,1-14.51,14.51H99.57A14.51,14.51,0,0,1,85.06,232.6V198.8a12.08,12.08,0,0,1,12.08-12.08Z" style="fill: rgb(245, 245, 245); transform-origin: 107.725px 216.915px;" id="els5ucvnsyf8h" class="animable"></path><rect x="95.72" y="177.99" width="24" height="17.73" style="fill: rgb(245, 245, 245); transform-origin: 107.72px 186.855px;" id="el6v2cl4sllui" class="animable"></rect><path d="M123.72,178h-32a2,2,0,0,1-2-2h0a2,2,0,0,1,2-2h32a2,2,0,0,1,2,2h0A2,2,0,0,1,123.72,178Z" style="fill: rgb(245, 245, 245); transform-origin: 107.72px 176px;" id="elen9z1raumr" class="animable"></path><polygon points="233.28 294.83 217.63 294.83 216.87 287.45 234.05 287.45 233.28 294.83" style="fill: rgb(230, 230, 230); transform-origin: 225.46px 291.14px;" id="elfwxehwsupjs" class="animable"></polygon><rect x="216.29" y="295.34" width="18.32" height="13.53" style="fill: rgb(245, 245, 245); transform-origin: 225.45px 302.105px;" id="elhjx6z7h4j8" class="animable"></rect><path d="M234.31,342.44a8.39,8.39,0,0,0,8.4-7.58c0-.42,0-.83,0-1.26V314.09A12.08,12.08,0,0,0,230.68,302H220.23a12.08,12.08,0,0,0-12.08,12.08V333.6c0,.43,0,.84,0,1.26a8.4,8.4,0,0,0,8.41,7.58Z" style="fill: rgb(240, 240, 240); transform-origin: 225.43px 322.22px;" id="elwo70uuybqs" class="animable"></path><path d="M237.67,295.34H213.24a1.53,1.53,0,0,1-1.53-1.53h0a1.53,1.53,0,0,1,1.53-1.52h24.43a1.52,1.52,0,0,1,1.53,1.52h0A1.52,1.52,0,0,1,237.67,295.34Z" style="fill: rgb(240, 240, 240); transform-origin: 225.455px 293.815px;" id="el76o9n4ch147" class="animable"></path><path d="M257.7,341.56h12.88a4.65,4.65,0,0,0,2.79-.95,15.2,15.2,0,1,0-18.31.1A4.38,4.38,0,0,0,257.7,341.56Z" style="fill: rgb(240, 240, 240); transform-origin: 264.149px 327.443px;" id="elzfdv3bdfj1m" class="animable"></path><rect x="260.04" y="300.57" width="8.2" height="20.27" style="fill: rgb(240, 240, 240); transform-origin: 264.14px 310.705px;" id="el9ez3spgcspn" class="animable"></rect><path d="M269.13,301.71h-10a1.68,1.68,0,0,1-1.68-1.68h0a1.68,1.68,0,0,1,1.68-1.68h10a1.68,1.68,0,0,1,1.68,1.68h0A1.68,1.68,0,0,1,269.13,301.71Z" style="fill: rgb(240, 240, 240); transform-origin: 264.13px 300.03px;" id="elrd2wf04lhgb" class="animable"></path><path d="M281.82,332.67a5.14,5.14,0,0,1-6.18-1.53c-2.31-2.8-.77-5.45.39-8.3,1-2.57,1.36-4.77.31-7.38a43.79,43.79,0,0,1-1.78-4c-.65-2.25-.18-4.48.25-6.72.49-2.55,1.36-5.49.38-8-1.46-3.75-8.72-6.29-11.67-2.94a6.28,6.28,0,0,0-1.27,4.61h1.8c0-2.93,1.32-5.17,5.67-4,8,2.24,1.62,11.83,3.23,17.49.76,2.68,2.73,4.8,2.33,7.75-.45,3.43-3.19,5.88-2.41,9.57a7,7,0,0,0,9.79,4.91C283.63,333.64,282.78,332.19,281.82,332.67Z" style="fill: rgb(224, 224, 224); transform-origin: 272.646px 313.508px;" id="elzr14dzrnpq" class="animable"></path><path d="M273.37,306.35s-.63,9.65-4.84,5.41S273.37,306.35,273.37,306.35Z" style="fill: rgb(224, 224, 224); transform-origin: 270.392px 309.593px;" id="el12ae0hw6n5" class="animable"></path><path d="M275.88,318.06s8.84,3.92,3.41,6.41S275.88,318.06,275.88,318.06Z" style="fill: rgb(224, 224, 224); transform-origin: 278.283px 321.485px;" id="elboey9l5vum" class="animable"></path><path d="M276.93,333.32s8.84,3.92,3.41,6.41S276.93,333.32,276.93,333.32Z" style="fill: rgb(224, 224, 224); transform-origin: 279.333px 336.745px;" id="elgcolx5tbn4u" class="animable"></path><path d="M280.68,333.75s3.89-8.86,6.4-3.44S280.68,333.75,280.68,333.75Z" style="fill: rgb(224, 224, 224); transform-origin: 284.103px 331.329px;" id="elk69mqjjt5br" class="animable"></path><path d="M270.56,293.33s6.36-7.28,7.13-1.35S270.56,293.33,270.56,293.33Z" style="fill: rgb(224, 224, 224); transform-origin: 274.151px 292.336px;" id="eleegzdylcba" class="animable"></path><path d="M274.42,301.71s9.48,1.89,4.73,5.51S274.42,301.71,274.42,301.71Z" style="fill: rgb(224, 224, 224); transform-origin: 277.451px 304.889px;" id="el9e4zefezpn" class="animable"></path><path d="M307.18,342.44h9.27a3.26,3.26,0,0,0,2-.69,10.94,10.94,0,1,0-13.18.08A3.15,3.15,0,0,0,307.18,342.44Z" style="fill: rgb(240, 240, 240); transform-origin: 311.807px 332.279px;" id="elmnhcpu5ddnd" class="animable"></path><rect x="308.87" y="306.49" width="5.9" height="22.64" style="fill: rgb(240, 240, 240); transform-origin: 311.82px 317.81px;" id="elgabc58uvee" class="animable"></rect><path d="M315.41,307.31h-7.18A1.21,1.21,0,0,1,307,306.1h0a1.21,1.21,0,0,1,1.21-1.21h7.18a1.21,1.21,0,0,1,1.21,1.21h0A1.21,1.21,0,0,1,315.41,307.31Z" style="fill: rgb(240, 240, 240); transform-origin: 311.8px 306.1px;" id="elexivgisyb4t" class="animable"></path><rect x="120.33" y="122.77" width="5.51" height="13.62" style="fill: rgb(235, 235, 235); transform-origin: 123.085px 129.58px;" id="el6nwzqh12p38" class="animable"></rect><path d="M126.43,123.54h-6.7a1.14,1.14,0,0,1-1.13-1.13h0a1.13,1.13,0,0,1,1.13-1.13h6.7a1.12,1.12,0,0,1,1.13,1.13h0A1.13,1.13,0,0,1,126.43,123.54Z" style="fill: rgb(235, 235, 235); transform-origin: 123.08px 122.41px;" id="elptqr0s1l4y" class="animable"></path><path d="M112.06,148l11-16.38,11,16.38a2.3,2.3,0,0,1-1.91,3.58H114A2.3,2.3,0,0,1,112.06,148Z" style="fill: rgb(235, 235, 235); transform-origin: 123.06px 141.6px;" id="eltxr6uf31rst" class="animable"></path><rect x="184.14" y="301.72" width="7.78" height="19.23" style="fill: rgb(235, 235, 235); transform-origin: 188.03px 311.335px;" id="elvsq1dirbplc" class="animable"></rect><path d="M192.76,302.8H183.3a1.59,1.59,0,0,1-1.6-1.59h0a1.6,1.6,0,0,1,1.6-1.6h9.46a1.6,1.6,0,0,1,1.6,1.6h0A1.6,1.6,0,0,1,192.76,302.8Z" style="fill: rgb(235, 235, 235); transform-origin: 188.03px 301.205px;" id="elilh14l7m2wh" class="animable"></path><path d="M172.46,337.37,188,314.24l15.56,23.13a3.25,3.25,0,0,1-2.69,5.07H175.16A3.26,3.26,0,0,1,172.46,337.37Z" style="fill: rgb(235, 235, 235); transform-origin: 188.014px 328.34px;" id="elk2o8j80atc" class="animable"></path><rect x="83.62" y="290.11" width="6.94" height="33.16" style="fill: rgb(245, 245, 245); transform-origin: 87.09px 306.69px;" id="eldbpvhfofd9" class="animable"></rect><path d="M91.31,291.08H82.86a1.43,1.43,0,0,1-1.42-1.43h0a1.43,1.43,0,0,1,1.42-1.42h8.45a1.42,1.42,0,0,1,1.42,1.42h0A1.42,1.42,0,0,1,91.31,291.08Z" style="fill: rgb(245, 245, 245); transform-origin: 87.085px 289.655px;" id="eljxpkyyrdcq8" class="animable"></path><path d="M73.2,337.92l13.89-20.63L101,337.92a2.9,2.9,0,0,1-2.4,4.52h-23A2.9,2.9,0,0,1,73.2,337.92Z" style="fill: rgb(245, 245, 245); transform-origin: 87.1px 329.865px;" id="elsb64kjhbdbc" class="animable"></path><path d="M116.24,305.82a.54.54,0,0,0-.38.93l2.31,2.31v30.45a2.93,2.93,0,0,0,2.92,2.93h17.14a2.93,2.93,0,0,0,2.93-2.93V305.82Z" style="fill: rgb(240, 240, 240); transform-origin: 128.427px 324.13px;" id="el8gyrgyognxm" class="animable"></path><path d="M269.44,115.49a.55.55,0,0,0-.39.93l2.31,2.31v30.45a2.93,2.93,0,0,0,2.93,2.93h17.14a2.94,2.94,0,0,0,2.93-2.93V115.49Z" style="fill: rgb(245, 245, 245); transform-origin: 281.629px 133.8px;" id="el48bxg8kdtn4" class="animable"></path><path d="M80,109.91a.62.62,0,0,0-.43,1.06l2.62,2.62v34.67a3.34,3.34,0,0,0,3.34,3.33H105a3.33,3.33,0,0,0,3.33-3.33V109.91Z" style="fill: rgb(245, 245, 245); transform-origin: 93.8584px 130.75px;" id="elynxcv1aflg" class="animable"></path><path d="M100.17,112.14h4.63a.4.4,0,0,0,0-.8h-4.63a.4.4,0,0,0,0,.8Z" style="fill: rgb(230, 230, 230); transform-origin: 102.485px 111.74px;" id="elwr5vwrtoy7k" class="animable"></path><path d="M102,114.59h2.84a.4.4,0,0,0,0-.8H102a.4.4,0,0,0,0,.8Z" style="fill: rgb(230, 230, 230); transform-origin: 103.42px 114.19px;" id="elxhd3pajxb5" class="animable"></path><path d="M102,117h2.84a.41.41,0,0,0,0-.81H102a.41.41,0,0,0,0,.81Z" style="fill: rgb(230, 230, 230); transform-origin: 103.42px 116.595px;" id="el52whdpdmw0w" class="animable"></path><path d="M102,119.49h2.84a.41.41,0,0,0,0-.81H102a.41.41,0,0,0,0,.81Z" style="fill: rgb(230, 230, 230); transform-origin: 103.42px 119.085px;" id="elxry3fgzkeb" class="animable"></path><path d="M102,121.93h2.84a.4.4,0,0,0,0-.8H102a.4.4,0,0,0,0,.8Z" style="fill: rgb(230, 230, 230); transform-origin: 103.42px 121.53px;" id="elps9i5b3cpaq" class="animable"></path><path d="M100.17,124.38h4.63a.4.4,0,0,0,0-.8h-4.63a.4.4,0,0,0,0,.8Z" style="fill: rgb(230, 230, 230); transform-origin: 102.485px 123.98px;" id="elt0fckp2l0im" class="animable"></path><path d="M102,126.83h2.84a.41.41,0,0,0,0-.81H102a.41.41,0,0,0,0,.81Z" style="fill: rgb(230, 230, 230); transform-origin: 103.42px 126.425px;" id="elanz23sa5n28" class="animable"></path><path d="M102,129.28h2.84a.41.41,0,0,0,0-.81H102a.41.41,0,0,0,0,.81Z" style="fill: rgb(230, 230, 230); transform-origin: 103.42px 128.875px;" id="el11nzyl0f1x2" class="animable"></path><path d="M102,131.72h2.84a.4.4,0,0,0,0-.8H102a.4.4,0,0,0,0,.8Z" style="fill: rgb(230, 230, 230); transform-origin: 103.42px 131.32px;" id="el4yqpyk82xhv" class="animable"></path><path d="M102,134.17h2.84a.4.4,0,0,0,0-.8H102a.4.4,0,0,0,0,.8Z" style="fill: rgb(230, 230, 230); transform-origin: 103.42px 133.77px;" id="el7pco87ompt9" class="animable"></path><path d="M100.17,136.62h4.63a.41.41,0,0,0,0-.81h-4.63a.41.41,0,0,0,0,.81Z" style="fill: rgb(230, 230, 230); transform-origin: 102.485px 136.215px;" id="el9wbnwx56w7" class="animable"></path><path d="M102,139.07h2.84a.41.41,0,0,0,0-.81H102a.41.41,0,0,0,0,.81Z" style="fill: rgb(230, 230, 230); transform-origin: 103.42px 138.665px;" id="elj9tfkfz36pd" class="animable"></path><path d="M102,141.52h2.84a.41.41,0,0,0,0-.81H102a.41.41,0,0,0,0,.81Z" style="fill: rgb(230, 230, 230); transform-origin: 103.42px 141.115px;" id="el3x3mf0duphn" class="animable"></path><path d="M102,144h2.84a.4.4,0,0,0,0-.8H102a.4.4,0,0,0,0,.8Z" style="fill: rgb(230, 230, 230); transform-origin: 103.42px 143.6px;" id="el4e44mqjepfd" class="animable"></path><path d="M102,146.41h2.84a.41.41,0,0,0,0-.81H102a.41.41,0,0,0,0,.81Z" style="fill: rgb(230, 230, 230); transform-origin: 103.42px 146.005px;" id="elbc643knbm4j" class="animable"></path><path d="M100.17,148.86h4.63a.41.41,0,0,0,0-.81h-4.63a.41.41,0,0,0,0,.81Z" style="fill: rgb(230, 230, 230); transform-origin: 102.485px 148.455px;" id="elmkekwi5cnv" class="animable"></path><path d="M387.38,231.23h23.06a4.28,4.28,0,0,0,4.28-4.28v-14h-2v14a2.29,2.29,0,0,1-2.28,2.28H387.38Z" style="fill: rgb(224, 224, 224); transform-origin: 401.05px 222.09px;" id="el5rtv5s578wl" class="animable"></path><circle cx="387.38" cy="212.94" r="12.69" style="fill: rgb(240, 240, 240); transform-origin: 387.38px 212.94px;" id="elwf757q5mzy" class="animable"></circle><path d="M376.45,243.14H384l.91-20h5l.92,20h7.52a3.65,3.65,0,0,1,3.65,3.65v.32H372.8v-.32A3.65,3.65,0,0,1,376.45,243.14Z" style="fill: rgb(235, 235, 235); transform-origin: 387.4px 235.125px;" id="el54klku3jj1o" class="animable"></path><path d="M409.56,212.94a4.17,4.17,0,1,0,4.16-4.17A4.16,4.16,0,0,0,409.56,212.94Z" style="fill: rgb(240, 240, 240); transform-origin: 413.73px 212.94px;" id="el47pqxv65ok" class="animable"></path><path d="M375.21,142.48h0a2.86,2.86,0,0,1-2.86-2.85V116.47h5.71v23.16A2.86,2.86,0,0,1,375.21,142.48Z" style="fill: rgb(245, 245, 245); transform-origin: 375.205px 129.475px;" id="elffc8me42ymq" class="animable"></path><path d="M378.68,117.27h-6.95a1.17,1.17,0,0,1-1.17-1.17h0a1.17,1.17,0,0,1,1.17-1.17h6.95a1.17,1.17,0,0,1,1.18,1.17h0A1.17,1.17,0,0,1,378.68,117.27Z" style="fill: rgb(245, 245, 245); transform-origin: 375.21px 116.1px;" id="elyly3jhk6bv8" class="animable"></path><path d="M387.6,142.48h0a2.85,2.85,0,0,1-2.85-2.85V116.47h5.71v23.16A2.86,2.86,0,0,1,387.6,142.48Z" style="fill: rgb(245, 245, 245); transform-origin: 387.605px 129.475px;" id="ellh5gqni96z9" class="animable"></path><path d="M391.08,117.27h-7A1.17,1.17,0,0,1,383,116.1h0a1.17,1.17,0,0,1,1.17-1.17h7a1.17,1.17,0,0,1,1.17,1.17h0A1.17,1.17,0,0,1,391.08,117.27Z" style="fill: rgb(245, 245, 245); transform-origin: 387.67px 116.102px;" id="el2ywtkm0fv8k" class="animable"></path><path d="M400,142.48h0a2.86,2.86,0,0,1-2.85-2.85V116.47h5.71v23.16A2.86,2.86,0,0,1,400,142.48Z" style="fill: rgb(245, 245, 245); transform-origin: 400.005px 129.475px;" id="eluffkahudsbp" class="animable"></path><path d="M403.47,117.27h-7a1.17,1.17,0,0,1-1.17-1.17h0a1.17,1.17,0,0,1,1.17-1.17h7a1.17,1.17,0,0,1,1.17,1.17h0A1.17,1.17,0,0,1,403.47,117.27Z" style="fill: rgb(245, 245, 245); transform-origin: 399.97px 116.1px;" id="eley04qunkjz7" class="animable"></path><path d="M412.39,142.48h0a2.86,2.86,0,0,1-2.86-2.85V116.47h5.71v23.16A2.86,2.86,0,0,1,412.39,142.48Z" style="fill: rgb(245, 245, 245); transform-origin: 412.385px 129.475px;" id="elkpgfa3p92e" class="animable"></path><path d="M415.86,117.27h-6.95a1.17,1.17,0,0,1-1.17-1.17h0a1.17,1.17,0,0,1,1.17-1.17h6.95A1.17,1.17,0,0,1,417,116.1h0A1.17,1.17,0,0,1,415.86,117.27Z" style="fill: rgb(245, 245, 245); transform-origin: 412.37px 116.1px;" id="eldq8xkq7iohn" class="animable"></path><path d="M366,119v32.63h2.66v-3.26H419v3.26h2.65V119Zm53,26.72H368.62V121.62H419v24.06Z" style="fill: rgb(235, 235, 235); transform-origin: 393.825px 135.315px;" id="elzvzrjygfalc" class="animable"></path><polygon points="293.42 151.59 314.81 123.2 336.2 151.59 293.42 151.59" style="fill: rgb(250, 250, 250); transform-origin: 314.81px 137.395px;" id="elhcf9pukqdfj" class="animable"></polygon><polygon points="336.2 151.59 314.81 123.2 314.81 151.59 336.2 151.59" style="fill: rgb(235, 235, 235); transform-origin: 325.505px 137.395px;" id="eld3iisng28l9" class="animable"></polygon><polygon points="365.05 342.44 391.51 307.31 417.98 342.44 365.05 342.44" style="fill: rgb(245, 245, 245); transform-origin: 391.515px 324.875px;" id="el3mvd5bs3zw2" class="animable"></polygon><polygon points="417.98 342.44 391.51 307.31 391.51 342.44 417.98 342.44" style="fill: rgb(235, 235, 235); transform-origin: 404.745px 324.875px;" id="eltzz1caf4xf" class="animable"></polygon></g><g id="freepik--Shadow--inject-1" class="animable" style="transform-origin: 245.18px 412.39px;"><ellipse id="freepik--path--inject-1" cx="245.18" cy="412.39" rx="193.89" ry="11.32" style="fill: rgb(245, 245, 245); transform-origin: 245.18px 412.39px;" class="animable"></ellipse></g><g id="freepik--character-2--inject-1" class="animable" style="transform-origin: 327.289px 248.161px;"><path d="M296.91,171.92l-8.15-8.15a2.93,2.93,0,0,1-.85-2.06v-3a2.93,2.93,0,0,0-1.73-2.67l-2.27-1a2.81,2.81,0,0,1-.88-.6L281,152.33a2.91,2.91,0,0,0-3.81-.27l-1.13.85a2.92,2.92,0,0,0-1.09,1.66l-1.19,5.08a2.91,2.91,0,0,0,1.14,3l5,3.61,2.89,1.89a3.15,3.15,0,0,1,.64.57l8.47,10.17Z" style="fill: #294B98; transform-origin: 285.31px 165.183px;" id="elqdjhnxfmt5" class="animable"></path><g id="elrhbpuzpanz"><path d="M296.91,171.92l-8.15-8.15a2.93,2.93,0,0,1-.85-2.06v-3a2.93,2.93,0,0,0-1.73-2.67l-2.27-1a2.81,2.81,0,0,1-.88-.6L281,152.33a2.91,2.91,0,0,0-3.81-.27l-1.13.85a2.92,2.92,0,0,0-1.09,1.66l-1.19,5.08a2.91,2.91,0,0,0,1.14,3l5,3.61,2.89,1.89a3.15,3.15,0,0,1,.64.57l8.47,10.17Z" style="fill: rgb(255, 255, 255); opacity: 0.3; transform-origin: 285.31px 165.183px;" class="animable" id="ellvsw584k5g"></path></g><path d="M337.28,136.4s-11.24,1-18.87,19.52-11.75,19.5-14.37,18a59,59,0,0,1-5.22-3.56,2.47,2.47,0,0,0-3.42.45l-4.79,6a2.49,2.49,0,0,0,0,3.1c2.84,3.56,10.39,11.67,18.69,9.44,11.24-3,19.46-19,20-23.91S337.28,136.4,337.28,136.4Z" style="fill: #294B98; transform-origin: 313.674px 163.066px;" id="el67x9zdrgpnh" class="animable"></path><g id="elvsheqfy9f4o"><path d="M337.28,136.4s-11.24,1-18.87,19.52-11.75,19.5-14.37,18a59,59,0,0,1-5.22-3.56,2.47,2.47,0,0,0-3.42.45l-4.79,6a2.49,2.49,0,0,0,0,3.1c2.84,3.56,10.39,11.67,18.69,9.44,11.24-3,19.46-19,20-23.91S337.28,136.4,337.28,136.4Z" style="fill: rgb(255, 255, 255); opacity: 0.5; transform-origin: 313.674px 163.066px;" class="animable" id="el3y02an3bgsk"></path></g><path d="M337.54,100.73s-6.12-3.72-6.23-.81,6.41,6,9.17,5.66Z" style="fill: rgb(38, 50, 56); transform-origin: 335.894px 102.207px;" id="elb41h930zhpt" class="animable"></path><g id="elr6u52u5i3"><path d="M337.54,100.73s-6.12-3.72-6.23-.81,6.41,6,9.17,5.66Z" style="opacity: 0.4; transform-origin: 335.894px 102.207px;" class="animable" id="elrq17i7xo048"></path></g><path d="M364.7,137s-.36-.13-1.08-.31v5.42h-26l1.43-6c-.35,0-1.39.26-1.75.31l-4,3s-6.9,15-8.56,52.25v48.5h53Z" style="fill: #294B98; transform-origin: 351.24px 188.14px;" id="elhlli4y3r5mb" class="animable"></path><path d="M356.29,134c-1.54-4.79-1.22-11.65-.7-16l-10.37,10.26a12.43,12.43,0,0,1,.65,5.7,2.07,2.07,0,0,1-1.79,1.75l-4.28.49-.66,4.3,1.34,3,5.39.54,7.56-1.41,9.85-5.7a17.22,17.22,0,0,0-4.31-.81A3.79,3.79,0,0,1,356.29,134Z" style="fill: rgb(255, 178, 115); transform-origin: 351.21px 131.02px;" id="el6ugbk30y724" class="animable"></path><g id="el5n5zuqg5svd"><path d="M351.37,123.05l-6,5.86a14.19,14.19,0,0,1,.58,3.33c2.43-.56,5.42-2.86,6.19-5.62C352.66,124.92,352,123.2,351.37,123.05Z" style="opacity: 0.2; isolation: isolate; transform-origin: 348.849px 127.645px;" class="animable" id="elhpcwdg1tntj"></path></g><path d="M357.16,110.32c-.45,7.88-.32,12.51-4.28,16.57-5.95,6.11-15.7,2.51-17.6-5.32-1.73-7.11-.69-18.77,7-21.93a10.75,10.75,0,0,1,14.87,10.68Z" style="fill: rgb(255, 178, 115); transform-origin: 345.869px 114.39px;" id="el175qhzom2dx" class="animable"></path><path d="M344.84,112.64c0,.65-.33,1.17-.75,1.17s-.76-.51-.76-1.16.33-1.16.75-1.16S344.84,112,344.84,112.64Z" style="fill: rgb(38, 50, 56); transform-origin: 344.085px 112.65px;" id="el6p9j2pj5mm9" class="animable"></path><path d="M342.37,121.76c0,.64-.34,1.17-.76,1.17s-.76-.52-.76-1.16.34-1.16.76-1.16S342.37,121.15,342.37,121.76Z" style="fill: rgb(38, 50, 56); transform-origin: 341.61px 121.77px;" id="el533xnpbp16e" class="animable"></path><path d="M337.6,112.68c0,.63-.34,1.16-.76,1.15s-.76-.51-.76-1.15.33-1.17.76-1.17S337.59,112,337.6,112.68Z" style="fill: rgb(38, 50, 56); transform-origin: 336.84px 112.67px;" id="el785vj5zpww2" class="animable"></path><path d="M347.57,109a.42.42,0,0,0,.16-.09.39.39,0,0,0-.08-.53,3.81,3.81,0,0,0-3.39-.57.38.38,0,1,0,.27.7h0a3,3,0,0,1,2.68.49A.38.38,0,0,0,347.57,109Z" style="fill: rgb(38, 50, 56); transform-origin: 345.879px 108.342px;" id="ell43qd6nbki" class="animable"></path><path d="M334.26,109.05a.36.36,0,0,0,.36,0,3,3,0,0,1,2.66-.48.38.38,0,0,0,.49-.21.38.38,0,0,0-.22-.49,3.76,3.76,0,0,0-3.4.57.38.38,0,0,0-.09.51h0A.3.3,0,0,0,334.26,109.05Z" style="fill: rgb(38, 50, 56); transform-origin: 335.897px 108.394px;" id="elu1krnr65x2" class="animable"></path><path d="M355.31,116.7h-4.1l2-6.93a11.57,11.57,0,0,1-4.65-6.6s-15.76,3.16-15.59-8,4.62,0,4.62,0,4.94-4.5,7.24-4,0,3.66,0,3.66,5.85-1.33,7.58-.16-1.21,2-1.21,2S364.09,100.15,358,116Z" style="fill: rgb(38, 50, 56); transform-origin: 346.302px 103.455px;" id="elbl7kgmsq3wg" class="animable"></path><path d="M357.05,113.77a6.11,6.11,0,0,0-4.33-1.79h-3.63a3.88,3.88,0,0,0-7.74-.18,1.16,1.16,0,0,0-.86,0,3.85,3.85,0,1,0,0,.57.63.63,0,0,1,.8,0,3.89,3.89,0,0,0,7.77.11h3.63a5.54,5.54,0,0,1,4,1.65l1.17,1.17.36-.36Zm-20.42,1.87a3.41,3.41,0,1,1,3.41-3.41A3.41,3.41,0,0,1,336.63,115.64Zm8.58,0a3.41,3.41,0,1,1,3.41-3.41A3.41,3.41,0,0,1,345.21,115.64Z" style="fill: #294B98; transform-origin: 345.51px 112.18px;" id="elqt6bo3q4s5h" class="animable"></path><path d="M361,117.65a7.58,7.58,0,0,1-4.66,3.33c-2.57.56-3.72-1.76-2.89-4.11.74-2.11,3-5,5.5-4.49S362.31,115.57,361,117.65Z" style="fill: rgb(255, 178, 115); transform-origin: 357.396px 116.693px;" id="elytlxnofz4np" class="animable"></path><path d="M340.65,112.65a23.05,23.05,0,0,1-3,5.49,3.74,3.74,0,0,0,3.07.57Z" style="fill: rgb(237, 132, 126); transform-origin: 339.185px 115.737px;" id="ell8o0b47mmel" class="animable"></path><path d="M329.22,380.25l.16,14.78a1.66,1.66,0,0,1-.89,1.51c-1.47.75-4.32,3.2-5.55,3.61a67.25,67.25,0,0,1-6.75,1.44,1.67,1.67,0,0,0-1.38,1.54h0a1.68,1.68,0,0,0,1.57,1.78l21.81.4a1.67,1.67,0,0,0,1.78-1.52l2.09-22.31a1.67,1.67,0,0,0-1.48-1.82l-9.49-1.1A1.68,1.68,0,0,0,329.22,380.25Z" style="fill: rgb(38, 50, 56); transform-origin: 328.437px 391.932px;" id="elxk421khfwtj" class="animable"></path><path d="M324.73,228v80.83l2.48,70.72a2.91,2.91,0,0,0,2.9,2.83h10.3a2.91,2.91,0,0,0,2.89-2.61c1.23-12.24,6.18-46.89,4-69.75,0,0,7.37-44.76,7.81-63.07L350,230.38Z" style="fill: #294B98; transform-origin: 339.92px 305.19px;" id="elwx502eckzv" class="animable"></path><g id="eln9o4rtqgydi"><path d="M347.8,234.56s-2.56,33.8,1.13,65.05c1.87-7.81,3.15-44.35,4.92-56.93Z" style="opacity: 0.2; transform-origin: 350.393px 267.085px;" class="animable" id="el4exjg1wcl2"></path></g><path d="M363.46,381.23l1.72,14.68a1.66,1.66,0,0,1-.74,1.59,59.08,59.08,0,0,1-5.24,3.19,67.8,67.8,0,0,1-6.56,2.13,1.69,1.69,0,0,0-1.21,1.68h0a1.68,1.68,0,0,0,1.74,1.61l21.85-.9a1.69,1.69,0,0,0,1.61-1.69l-.27-22.42a1.67,1.67,0,0,0-1.66-1.65l-9.56-.09A1.68,1.68,0,0,0,363.46,381.23Z" style="fill: rgb(38, 50, 56); transform-origin: 364.029px 392.736px;" id="elejx729u0sxb" class="animable"></path><path d="M346.85,230.1l6.75,77.72,7.9,72.65a2.82,2.82,0,0,0,3,2.52l10.32-.66a2.81,2.81,0,0,0,2.65-2.75c.29-12,2.5-49.3-1.67-71.26,0,0,5.89-49.31,1.91-80.92Z" style="fill: #294B98; transform-origin: 362.97px 305.198px;" id="el84vriegqsew" class="animable"></path><g id="elbviiinmysyo"><polygon points="326.87 225.42 327.32 228.65 365.54 230.67 365.54 225.42 326.87 225.42" style="opacity: 0.2; transform-origin: 346.205px 228.045px;" class="animable" id="elxfh32c2ez2k"></polygon></g><path d="M342.73,135.94s-2.69,5.38.84,5.6c5.37.35,16.22-5.54,16.22-5.54l2.31.53s-.06,8.89-11.9,12.3c0,0-3.41-4.41-6.83-4.5s-7.92,3.59-7.92,3.59-2.18-5.82,3.58-11.83Z" style="fill: #294B98; transform-origin: 348.573px 142.385px;" id="el3fde88bohi2" class="animable"></path><path d="M341.29,136s-7.5,3.17-10.25,23.42-3.75,58.25-3,76,1.75,29.25-3.75,28.5c0,0-.5-28.5,0-60.25S321.54,136.58,341.29,136Z" style="fill: #294B98; transform-origin: 332.679px 199.977px;" id="elst0x5f0tpy" class="animable"></path><g id="el2ovbcq0t212"><path d="M341.29,136s-7.5,3.17-10.25,23.42-3.75,58.25-3,76,1.75,29.25-3.75,28.5c0,0-.5-28.5,0-60.25.45-28.93-2.21-60.84,12.26-66.72.21-.08.52-.48.73-.55A13.79,13.79,0,0,1,341.29,136Z" style="fill: rgb(255, 255, 255); opacity: 0.7; transform-origin: 332.679px 199.97px;" class="animable" id="el9ac79147onw"></path></g><path d="M362.79,136s-9,5-10,36.67-.67,91.66,10,92.66,22.33-5,22.33-5-.76-11.48-2.75-26c-1.66-12.15-4.49-26.44-5.58-38-1.27-13.32,6-50,1.33-53.66S362.79,136,362.79,136Z" style="fill: #294B98; transform-origin: 368.769px 200.721px;" id="eldp0t0hsk3ji" class="animable"></path><g id="elfx779k36m3r"><path d="M362.79,136s-9,5-10,36.67-.67,91.66,10,92.66,22.33-5,22.33-5-.76-11.48-2.75-26c-1.66-12.15-4.49-26.44-5.58-38-1.27-13.32,6-50,1.33-53.66S362.79,136,362.79,136Z" style="fill: rgb(255, 255, 255); opacity: 0.7; transform-origin: 368.769px 200.721px;" class="animable" id="elok0kzq9zq3o"></path></g><g id="elv6b4hqkw2mg"><path d="M358.14,220.33h15a0,0,0,0,1,0,0v1.89a3.27,3.27,0,0,1-3.27,3.27h-8.45a3.27,3.27,0,0,1-3.27-3.27v-1.89a0,0,0,0,1,0,0Z" style="fill: #294B98; transform-origin: 365.64px 222.91px; transform: rotate(-8.18deg);" class="animable" id="ela9ib1s7u1j9"></path></g><g id="el47mp7n53d6j"><path d="M358.14,220.33h15a0,0,0,0,1,0,0v1.89a3.27,3.27,0,0,1-3.27,3.27h-8.45a3.27,3.27,0,0,1-3.27-3.27v-1.89a0,0,0,0,1,0,0Z" style="fill: rgb(255, 255, 255); opacity: 0.6; transform-origin: 365.64px 222.91px; transform: rotate(-8.18deg);" class="animable" id="elbg3gprlwvrb"></path></g><path d="M351,210.79H329.78a1.67,1.67,0,0,1-1.62-1.46l-3.42-32.57a1.29,1.29,0,0,1,1.31-1.47h21.23a1.67,1.67,0,0,1,1.62,1.47l3.43,32.57A1.29,1.29,0,0,1,351,210.79Z" style="fill: rgb(38, 50, 56); transform-origin: 338.534px 193.04px;" id="elj2e8zako4p" class="animable"></path><g id="elzbp1ckvi09n"><path d="M351,210.79H329.78a1.67,1.67,0,0,1-1.62-1.46l-3.42-32.57a1.29,1.29,0,0,1,1.31-1.47h21.23a1.67,1.67,0,0,1,1.62,1.47l3.43,32.57A1.29,1.29,0,0,1,351,210.79Z" style="fill: rgb(255, 255, 255); opacity: 0.5; transform-origin: 338.534px 193.04px;" class="animable" id="eldhzsuhm5d2m"></path></g><path d="M339.48,177.88H334.4a2.09,2.09,0,0,1-2-1.84l-.31-3h8.75l.31,3A1.62,1.62,0,0,1,339.48,177.88Z" style="fill: rgb(38, 50, 56); transform-origin: 336.628px 175.461px;" id="elzy5hlnwf4zl" class="animable"></path><g id="elejaq73yx6iu"><path d="M339.48,177.88H334.4a2.09,2.09,0,0,1-2-1.84l-.31-3h8.75l.31,3A1.62,1.62,0,0,1,339.48,177.88Z" style="fill: rgb(255, 255, 255); opacity: 0.7; transform-origin: 336.628px 175.461px;" class="animable" id="elbhzp0mwvemr"></path></g><path d="M348.28,175.29h-1a1.67,1.67,0,0,1,1.62,1.47l3.43,32.57a1.29,1.29,0,0,1-1.31,1.46h1a1.29,1.29,0,0,0,1.31-1.46l-3.43-32.57A1.67,1.67,0,0,0,348.28,175.29Z" style="fill: rgb(38, 50, 56); transform-origin: 350.311px 193.04px;" id="elwyyqb56pai" class="animable"></path><g id="elcyvm7nfr21b"><path d="M348.28,175.29h-1a1.67,1.67,0,0,1,1.62,1.47l3.43,32.57a1.29,1.29,0,0,1-1.31,1.46h1a1.29,1.29,0,0,0,1.31-1.46l-3.43-32.57A1.67,1.67,0,0,0,348.28,175.29Z" style="fill: rgb(255, 255, 255); opacity: 0.7; transform-origin: 350.311px 193.04px;" class="animable" id="el2oke6d3h52v"></path></g><path d="M370.53,188.78l-11.84,2.66-5.24-3.11a3,3,0,0,0-2-.4l-4.26.63a3,3,0,0,0-2.23,1.55l-1,1.75a3.06,3.06,0,0,0-.32,1.95l.33,2a3.06,3.06,0,0,0,2.27,2.46l7.2,1.78a3.07,3.07,0,0,0,1.7-.07l5-1.69,14.34-1.67Z" style="fill: #294B98; transform-origin: 359.039px 194.017px;" id="ell5s4jj2tgwb" class="animable"></path><g id="el5i6r2y2yms"><path d="M370.53,188.78l-11.84,2.66-5.24-3.11a3,3,0,0,0-2-.4l-4.26.63a3,3,0,0,0-2.23,1.55l-1,1.75a3.06,3.06,0,0,0-.32,1.95l.33,2a3.06,3.06,0,0,0,2.27,2.46l7.2,1.78a3.07,3.07,0,0,0,1.7-.07l5-1.69,14.34-1.67Z" style="fill: rgb(255, 255, 255); opacity: 0.3; transform-origin: 359.039px 194.017px;" class="animable" id="els5s46i8yxjk"></path></g><path d="M370.5,196.45a2.93,2.93,0,0,0,3.12,2.07c3.76-.39,10.82-1.83,15.92-7.1,7.25-7.5-2.82-36.1-6.75-43.25-4.41-8-11.23-9.16-11.23-9.16-8.77-3-7.52,5.16-5,15.16s12,24.5,12.25,27.25c.16,1.76-5.25,3.84-9.15,5.1A2.93,2.93,0,0,0,368,190.8,24.67,24.67,0,0,1,370.5,196.45Z" style="fill: #294B98; transform-origin: 378.4px 168.459px;" id="eluusorl5y3ba" class="animable"></path><g id="ela8xltkz12yb"><path d="M370.5,196.45a2.93,2.93,0,0,0,3.12,2.07c3.76-.39,10.82-1.83,15.92-7.1,7.25-7.5-2.82-36.1-6.75-43.25-4.41-8-11.23-9.16-11.23-9.16-8.77-3-7.52,5.16-5,15.16s12,24.5,12.25,27.25c.16,1.76-5.25,3.84-9.15,5.1A2.93,2.93,0,0,0,368,190.8,24.67,24.67,0,0,1,370.5,196.45Z" style="fill: rgb(255, 255, 255); opacity: 0.8; transform-origin: 378.4px 168.459px;" class="animable" id="ellnut6sakg"></path></g><path d="M283.63,136.69h-4a2.19,2.19,0,0,0-2.2,2.19v0a2.18,2.18,0,0,0,1.19,1.93v35.36a2.52,2.52,0,0,0,2.52,2.52h1a2.52,2.52,0,0,0,2.52-2.52V140.85a2.17,2.17,0,0,0,1.18-1.93v0A2.19,2.19,0,0,0,283.63,136.69Z" style="fill: #294B98; transform-origin: 281.635px 157.69px;" id="el79z8gt5ya1t" class="animable"></path><g id="el56oaqqj5abh"><path d="M283.63,136.69h-4a2.19,2.19,0,0,0-2.2,2.19v0a2.18,2.18,0,0,0,1.19,1.93v35.36a2.52,2.52,0,0,0,2.52,2.52h1a2.52,2.52,0,0,0,2.52-2.52V140.85a2.17,2.17,0,0,0,1.18-1.93v0A2.19,2.19,0,0,0,283.63,136.69Z" style="fill: rgb(255, 255, 255); opacity: 0.6; transform-origin: 281.635px 157.69px;" class="animable" id="el528q2smgs26"></path></g><path d="M278.26,137.17a10.36,10.36,0,0,0,6.72,0,2.14,2.14,0,0,0-1.35-.48h-4A2.17,2.17,0,0,0,278.26,137.17Z" style="fill: #294B98; transform-origin: 281.62px 137.21px;" id="elv06lik11tyf" class="animable"></path><path d="M281.62,157.45c-1,0-1.87-.26-1.89-.59v19.35a1.4,1.4,0,0,0,1.4,1.4h1a1.4,1.4,0,0,0,1.4-1.4V156.86C283.5,157.19,282.66,157.45,281.62,157.45Z" style="fill: #294B98; transform-origin: 281.63px 167.235px;" id="el3t61ohkod5q" class="animable"></path><path d="M283.53,156.84c0,.34-.86.61-1.91.61s-1.9-.27-1.9-.61.85-.61,1.9-.61S283.53,156.51,283.53,156.84Z" style="fill: #294B98; transform-origin: 281.625px 156.84px;" id="elwfqexp0wyjf" class="animable"></path><g id="elwwttprwsf9j"><path d="M283.53,156.84c0,.34-.86.61-1.91.61s-1.9-.27-1.9-.61.85-.61,1.9-.61S283.53,156.51,283.53,156.84Z" style="opacity: 0.3; transform-origin: 281.625px 156.84px;" class="animable" id="elhj04wrrcxs"></path></g><g id="el6nv5ugu8aea"><g style="opacity: 0.8; transform-origin: 280.26px 158.66px;" class="animable" id="elg61imfnjems"><path d="M279.7,141.11v35.1a.56.56,0,0,0,1.12,0v-35.1a.56.56,0,0,0-1.12,0Z" style="fill: rgb(255, 255, 255); transform-origin: 280.26px 158.66px;" id="elxvui4l1y72i" class="animable"></path></g></g><path d="M274.69,115.19c-.74-1.2-1.52-2.38-2.35-3.51l-.4.3c.82,1.12,1.59,2.28,2.32,3.46A.69.69,0,0,1,274.69,115.19Z" style="fill: #294B98; transform-origin: 273.315px 113.56px;" id="elyhb7w6d6w1i" class="animable"></path><path d="M275.41,116.37a.7.7,0,0,1-.43.26,52.37,52.37,0,0,1,5.53,13.53L281,130A52.94,52.94,0,0,0,275.41,116.37Z" style="fill: #294B98; transform-origin: 277.99px 123.265px;" id="ellcpnyoxmp8" class="animable"></path><path d="M281.49,117a.61.61,0,0,1,.28.06l-.34-8.14-.5,0,.34,8.1A.72.72,0,0,1,281.49,117Z" style="fill: #294B98; transform-origin: 281.35px 112.99px;" id="eld2u0ois4u3" class="animable"></path><path d="M281.49,118.48a.75.75,0,0,1-.16,0l.14,3.33.5,0-.14-3.36A.75.75,0,0,1,281.49,118.48Z" style="fill: #294B98; transform-origin: 281.65px 120.13px;" id="elbg6ttwzdvdl" class="animable"></path><path d="M284.22,126.85a.68.68,0,0,1,.46.17,86.59,86.59,0,0,1,5.88-16.76l-.45-.21a88,88,0,0,0-5.91,16.8Z" style="fill: #294B98; transform-origin: 287.38px 118.535px;" id="el87592cseuzs" class="animable"></path><path d="M284.22,128.34a.67.67,0,0,1-.33-.08c-.31,1.37-.6,2.75-.84,4.14l.49.08c.25-1.4.54-2.79.85-4.18A1,1,0,0,1,284.22,128.34Z" style="fill: #294B98; transform-origin: 283.72px 130.37px;" id="el9l4kio428q7" class="animable"></path><g id="elv8uqk0lwj7l"><rect x="292.18" y="104.16" width="0.5" height="5.12" style="fill: #294B98; transform-origin: 292.43px 106.72px; transform: rotate(-21.15deg);" class="animable" id="elqvja0gby06"></rect></g><g id="elwup0vaky37h"><rect x="290.11" y="106.46" width="4.1" height="0.5" style="fill: #294B98; transform-origin: 292.16px 106.71px; transform: rotate(-28.72deg);" class="animable" id="elrybjz5pqa7g"></rect></g><g id="elm7fkopkq6sk"><rect x="290.09" y="106.46" width="4.06" height="0.5" style="fill: #294B98; transform-origin: 292.12px 106.71px; transform: rotate(-74.58deg);" class="animable" id="el0gi8f992wgt"></rect></g><g id="elpy5rg54z0xh"><rect x="292.17" y="104.55" width="0.5" height="4.1" style="fill: #294B98; transform-origin: 292.42px 106.6px; transform: rotate(-66.4deg);" class="animable" id="eljs2zj1o6wl"></rect></g><g id="el7x1a9mq9yb6"><rect x="264.42" y="128.26" width="0.5" height="5.12" style="fill: #294B98; transform-origin: 264.67px 130.82px; transform: rotate(-21.15deg);" class="animable" id="el5fhxap8g99n"></rect></g><g id="elsm2q5eilyg"><rect x="262.35" y="130.56" width="4.1" height="0.5" style="fill: #294B98; transform-origin: 264.4px 130.81px; transform: rotate(-28.71deg);" class="animable" id="el6orctvratsp"></rect></g><polygon points="264.06 132.83 263.58 132.7 264.66 128.78 265.14 128.91 264.06 132.83" style="fill: #294B98; transform-origin: 264.36px 130.805px;" id="el2365h78j6is" class="animable"></polygon><g id="eljyfptd1yuiq"><rect x="264.41" y="128.65" width="0.5" height="4.1" style="fill: #294B98; transform-origin: 264.66px 130.7px; transform: rotate(-66.4deg);" class="animable" id="el2sqz37ke4ki"></rect></g><path d="M279.39,105.19l-.07-.49c.46-.07,1-.13,1.47-.19l1.46-.19.07.49-1.47.19Z" style="fill: #294B98; transform-origin: 280.82px 104.755px;" id="el9vwvehrs4c5" class="animable"></path><path d="M280.24,106.84l-.47-.18.89-2.3.27.31.68.8.66.77-.37.33-.67-.78c-.13-.16-.27-.31-.4-.48Z" style="fill: #294B98; transform-origin: 281.02px 105.6px;" id="elv46m806jvue" class="animable"></path><path d="M280.53,105c0-.18,0-.46-.06-.74s0-.55-.06-.72l.5-.06c0,.18,0,.46.06.74s0,.55.06.73Z" style="fill: #294B98; transform-origin: 280.72px 104.24px;" id="el9mt6impbexq" class="animable"></path><path d="M296.29,123.9c-.24-.39-.51-.83-.77-1.27l-.76-1.26.42-.26.77,1.26c.26.44.52.88.76,1.27Z" style="fill: #294B98; transform-origin: 295.735px 122.505px;" id="el0rx4qfabl11" class="animable"></path><path d="M295,124.43l-.45-.21c.15-.33.3-.63.45-.93s.18-.37.26-.55l-1.62.07,0-.5,2.46-.11-.17.37c-.16.33-.31.63-.45.94S295.11,124.11,295,124.43Z" style="fill: #294B98; transform-origin: 294.87px 123.315px;" id="elqy4aulrkv" class="animable"></path><path d="M295.67,122.76l-.25-.43c.16-.1.4-.23.65-.36l.64-.34.25.43-.65.35Z" style="fill: #294B98; transform-origin: 296.19px 122.195px;" id="ellwom2fxcib" class="animable"></path><path d="M270.53,110.53l-.81-1.22-.83-1.24.41-.28c.27.38.55.81.83,1.24l.82,1.22Z" style="fill: #294B98; transform-origin: 269.92px 109.16px;" id="el7gmj9s9sf6m" class="animable"></path><path d="M272.09,109.25l-2.46.23.16-.38c.14-.34.28-.65.41-1l.41-.94.46.19-.41,1c-.08.19-.16.37-.24.57l1.62-.15Z" style="fill: #294B98; transform-origin: 270.86px 108.32px;" id="el9czhrlfn8nj" class="animable"></path><path d="M269,110.08l-.27-.42.64-.38.62-.38.27.42-.63.39Z" style="fill: #294B98; transform-origin: 269.495px 109.49px;" id="elufr2fg2xyw" class="animable"></path><path d="M289.42,126.21a16.15,16.15,0,0,1,3.57-2.47l-.23-.45a17,17,0,0,0-3.44,2.34A.78.78,0,0,1,289.42,126.21Z" style="fill: #294B98; transform-origin: 291.155px 124.75px;" id="elej9ua56dw4t" class="animable"></path><path d="M288.73,126.79a.72.72,0,0,1-.45-.16,16.68,16.68,0,0,0-3.34,5l.45.2a16.41,16.41,0,0,1,3.46-5Z" style="fill: #294B98; transform-origin: 286.895px 129.23px;" id="elogz85xhg6vc" class="animable"></path><path d="M271,127.83v-.12a.75.75,0,0,1,.09-.35,6.68,6.68,0,0,0-3.54,1.87l.36.34a6.14,6.14,0,0,1,3.1-1.68S271,127.86,271,127.83Z" style="fill: #294B98; transform-origin: 269.32px 128.465px;" id="elxso4vwn5y5o" class="animable"></path><path d="M273.5,127.36a6.64,6.64,0,0,0-1.18-.1.73.73,0,0,1,.17.45v.05a5.73,5.73,0,0,1,.92.09,6.2,6.2,0,0,1,4.45,3.67l.46-.19A6.72,6.72,0,0,0,273.5,127.36Z" style="fill: #294B98; transform-origin: 275.32px 129.39px;" id="elye0ls00t2v" class="animable"></path></g><g id="freepik--Table--inject-1" class="animable" style="transform-origin: 225.415px 300.196px;"><polygon points="350.4 406.27 347.3 406.27 343.3 272.93 347.4 272.93 350.4 406.27" style="fill: #294B98; transform-origin: 346.85px 339.6px;" id="el42y8tmmdiak" class="animable"></polygon><g id="el7a05y7buvn9"><polygon points="350.4 406.27 347.3 406.27 343.3 272.93 347.4 272.93 350.4 406.27" style="fill: rgb(255, 255, 255); opacity: 0.3; transform-origin: 346.85px 339.6px;" class="animable" id="el25rjierjihi"></polygon></g><polygon points="300.3 272.93 300.3 406.27 303.59 406.27 307.45 279.03 347.14 279.03 350.04 406.27 353.3 406.27 353.3 272.93 300.3 272.93" style="fill: #294B98; transform-origin: 326.8px 339.6px;" id="eloya05vd97ma" class="animable"></polygon><g id="el1wjgaruxdbf"><polygon points="300.3 272.93 300.3 406.27 303.59 406.27 307.45 279.03 347.14 279.03 350.04 406.27 353.3 406.27 353.3 272.93 300.3 272.93" style="fill: rgb(255, 255, 255); opacity: 0.5; transform-origin: 326.8px 339.6px;" class="animable" id="eluky4fvvmn7h"></polygon></g><polygon points="300.3 406.27 297.19 406.27 296.19 272.93 300.3 272.93 300.3 406.27" style="fill: #294B98; transform-origin: 298.245px 339.6px;" id="elsq8b93j9s1" class="animable"></polygon><g id="elvr37b6l69vh"><polygon points="300.3 406.27 297.19 406.27 296.19 272.93 300.3 272.93 300.3 406.27" style="fill: rgb(255, 255, 255); opacity: 0.3; transform-origin: 298.245px 339.6px;" class="animable" id="el0d5zetgzwvxj"></polygon></g><polygon points="151.74 406.27 148.63 406.27 144.63 272.93 148.74 272.93 151.74 406.27" style="fill: #294B98; transform-origin: 148.185px 339.6px;" id="el3pdsm39fink" class="animable"></polygon><g id="el7pwpscu3inp"><polygon points="151.74 406.27 148.63 406.27 144.63 272.93 148.74 272.93 151.74 406.27" style="fill: rgb(255, 255, 255); opacity: 0.5; transform-origin: 148.185px 339.6px;" class="animable" id="eliiyikxsm2a"></polygon></g><polygon points="101.63 272.93 101.63 406.27 104.92 406.27 108.79 279.03 148.47 279.03 151.38 406.27 154.63 406.27 154.63 272.93 101.63 272.93" style="fill: #294B98; transform-origin: 128.13px 339.6px;" id="el5i4gm1qkv2k" class="animable"></polygon><g id="eluq0fg4viabk"><polygon points="101.63 272.93 101.63 406.27 104.92 406.27 108.79 279.03 148.47 279.03 151.38 406.27 154.63 406.27 154.63 272.93 101.63 272.93" style="fill: rgb(255, 255, 255); opacity: 0.3; transform-origin: 128.13px 339.6px;" class="animable" id="ela7dar2frs4k"></polygon></g><polygon points="101.63 406.27 98.52 406.27 97.52 272.93 101.63 272.93 101.63 406.27" style="fill: #294B98; transform-origin: 99.575px 339.6px;" id="ell0o9xm4r6i" class="animable"></polygon><g id="elzp4lg3pjq2j"><polygon points="101.63 406.27 98.52 406.27 97.52 272.93 101.63 272.93 101.63 406.27" style="fill: rgb(255, 255, 255); opacity: 0.5; transform-origin: 99.575px 339.6px;" class="animable" id="elfk8gn2htowm"></polygon></g><rect x="92.09" y="265.27" width="205.65" height="7.67" style="fill: #294B98; transform-origin: 194.915px 269.105px;" id="elg7ewewt8xa" class="animable"></rect><g id="elerter40mank"><rect x="92.09" y="265.27" width="205.65" height="7.67" style="fill: rgb(255, 255, 255); opacity: 0.6; transform-origin: 194.915px 269.105px;" class="animable" id="el91ds3nc277p"></rect></g><rect x="292.96" y="265.27" width="65.78" height="7.67" style="fill: #294B98; transform-origin: 325.85px 269.105px;" id="elss1o6p8k2g" class="animable"></rect><g id="el7n8fu0bpzj7"><rect x="292.96" y="265.27" width="65.78" height="7.67" style="fill: rgb(255, 255, 255); opacity: 0.8; transform-origin: 325.85px 269.105px;" class="animable" id="elt9z1me75ay"></rect></g><path d="M208,245.5a13.42,13.42,0,0,0-10.05-11v-15a2.75,2.75,0,0,0,2.11-2.67v0a2.76,2.76,0,0,0-2.75-2.76h-5a2.76,2.76,0,0,0-2.75,2.76v0a2.75,2.75,0,0,0,2.11,2.67v15a13.34,13.34,0,0,0-4.57,23.85,5.19,5.19,0,0,0,3,.95h9.4a5.21,5.21,0,0,0,3-.94A13.31,13.31,0,0,0,208,245.5Z" style="fill: #294B98; transform-origin: 194.81px 236.685px;" id="elev0y6f57csv" class="animable"></path><path d="M208,245.5a13.42,13.42,0,0,0-10.05-11v-15a2.75,2.75,0,0,0,2.11-2.67v0a2.76,2.76,0,0,0-2.75-2.76h-5a2.76,2.76,0,0,0-2.75,2.76v0a2.75,2.75,0,0,0,2.11,2.67v15a13.34,13.34,0,0,0-4.57,23.85,5.19,5.19,0,0,0,3,.95h9.4a5.21,5.21,0,0,0,3-.94A13.31,13.31,0,0,0,208,245.5Z" style="fill: #294B98; transform-origin: 194.81px 236.685px;" id="elx5uhh672vv8" class="animable"></path><g id="el493s0zopjme"><path d="M208,245.5a13.42,13.42,0,0,0-10.05-11v-15a2.75,2.75,0,0,0,2.11-2.67v0a2.76,2.76,0,0,0-2.75-2.76h-5a2.76,2.76,0,0,0-2.75,2.76v0a2.75,2.75,0,0,0,2.11,2.67v15a13.34,13.34,0,0,0-4.57,23.85,5.19,5.19,0,0,0,3,.95h9.4a5.21,5.21,0,0,0,3-.94A13.31,13.31,0,0,0,208,245.5Z" style="fill: rgb(255, 255, 255); opacity: 0.7; transform-origin: 194.81px 236.685px;" class="animable" id="elgvbzxqkwiuj"></path></g><path d="M190.57,214.66a13.07,13.07,0,0,0,8.44,0,2.7,2.7,0,0,0-1.7-.61h-5A2.7,2.7,0,0,0,190.57,214.66Z" style="fill: #294B98; transform-origin: 194.79px 214.705px;" id="el5dzaifj1yyg" class="animable"></path><path d="M206.61,245.71A11.49,11.49,0,0,0,205,241.4c-.14.76-4.67,1.37-10.24,1.37s-10.17-.62-10.25-1.39a11.9,11.9,0,0,0,3.33,15.85,3.92,3.92,0,0,0,2.22.69h9.41a3.81,3.81,0,0,0,2.19-.68A12,12,0,0,0,206.61,245.71Z" style="fill: #294B98; transform-origin: 194.772px 249.65px;" id="el944obx42jdm" class="animable"></path><path d="M205,241.36c0,.78-4.59,1.41-10.25,1.41s-10.25-.63-10.25-1.41,4.59-1.4,10.25-1.4S205,240.59,205,241.36Z" style="fill: #294B98; transform-origin: 194.75px 241.365px;" id="el77zuidawrgy" class="animable"></path><g id="el1y9rm6rjxzp"><path d="M205,241.36c0,.78-4.59,1.41-10.25,1.41s-10.25-.63-10.25-1.41,4.59-1.4,10.25-1.4S205,240.59,205,241.36Z" style="opacity: 0.2; transform-origin: 194.75px 241.365px;" class="animable" id="el69gsh9fquln"></path></g><g id="elyok80irm1hd"><path d="M184.14,247.8s2.37,9,6.14,8.41S187.59,252.66,184.14,247.8Z" style="fill: rgb(255, 255, 255); opacity: 0.5; transform-origin: 187.782px 252.019px;" class="animable" id="elkd9kztp2nx8"></path></g><path d="M211.27,264.48l-4.44-10.73h1.58a.91.91,0,0,0,.91-.91v-.34a.91.91,0,0,0-.91-.91H181.23a.91.91,0,0,0-.91.91v.34a.91.91,0,0,0,.91.91h1.6l-4.46,10.75c-.18.45.17.63.61.82s.83.3,1-.15l4.73-11.42H194V265c0,.48.39.52.87.52s.88,0,.88-.52V253.75h9.23l4.72,11.4c.19.45.56.33,1,.15S211.46,264.93,211.27,264.48Z" style="fill: rgb(38, 50, 56); transform-origin: 194.824px 258.555px;" id="el1heh1qg937x" class="animable"></path><g id="el5h8poo44elk"><path d="M211.2,264.48l-4.44-10.73h1.59a.91.91,0,0,0,.91-.91v-.34a.91.91,0,0,0-.91-.91H181.17a.9.9,0,0,0-.91.91v.34a.9.9,0,0,0,.91.91h1.59l-4.45,10.75c-.19.45.16.63.61.82s.82.3,1-.15l4.73-11.42h9.22V265c0,.48.39.52.88.52s.87,0,.87-.52V253.75h9.23l4.73,11.4c.18.45.56.33,1,.15S211.39,264.93,211.2,264.48Z" style="fill: rgb(255, 255, 255); opacity: 0.4; transform-origin: 194.754px 258.555px;" class="animable" id="el0oz0nbbliqb9"></path></g><path d="M226,227h-3.23a1.76,1.76,0,0,0-1.76,1.77v0a1.77,1.77,0,0,0,.95,1.56v28.4a2,2,0,0,0,2,2h.79a2,2,0,0,0,2-2v-28.4a1.77,1.77,0,0,0,.95-1.56v0A1.76,1.76,0,0,0,226,227Z" style="fill: #294B98; transform-origin: 224.355px 243.865px;" id="ely1fm0wdawx" class="animable"></path><g id="elepkf8b1rlrc"><path d="M226,227h-3.23a1.76,1.76,0,0,0-1.76,1.77v0a1.77,1.77,0,0,0,.95,1.56v28.4a2,2,0,0,0,2,2h.79a2,2,0,0,0,2-2v-28.4a1.77,1.77,0,0,0,.95-1.56v0A1.76,1.76,0,0,0,226,227Z" style="fill: rgb(255, 255, 255); opacity: 0.6; transform-origin: 224.355px 243.865px;" class="animable" id="el1w7d7sg3mtn"></path></g><path d="M221.71,227.37a8.3,8.3,0,0,0,5.39,0A1.72,1.72,0,0,0,226,227h-3.23A1.72,1.72,0,0,0,221.71,227.37Z" style="fill: #294B98; transform-origin: 224.405px 227.41px;" id="el442gjhzlk4s" class="animable"></path><path d="M224.4,250.09c-.83,0-1.5-.22-1.52-.48v9.12a1.13,1.13,0,0,0,1.13,1.12h.79a1.13,1.13,0,0,0,1.13-1.12v-9.12C225.91,249.87,225.24,250.09,224.4,250.09Z" style="fill: #294B98; transform-origin: 224.405px 254.73px;" id="elovjklg1r34" class="animable"></path><path d="M225.93,249.6c0,.27-.68.49-1.53.49s-1.52-.22-1.52-.49.68-.49,1.52-.49S225.93,249.33,225.93,249.6Z" style="fill: #294B98; transform-origin: 224.405px 249.6px;" id="ely3kan0tl6n" class="animable"></path><g id="eldzbeqlyyidr"><path d="M225.93,249.6c0,.27-.68.49-1.53.49s-1.52-.22-1.52-.49.68-.49,1.52-.49S225.93,249.33,225.93,249.6Z" style="opacity: 0.3; transform-origin: 224.405px 249.6px;" class="animable" id="elbqvhebwycsh"></path></g><g id="elq0xs6i8ntld"><g style="opacity: 0.8; transform-origin: 223.31px 244.63px;" class="animable" id="ele0mdv8ukh0f"><path d="M222.86,230.53v28.2a.45.45,0,0,0,.9,0v-28.2a.45.45,0,0,0-.9,0Z" style="fill: rgb(255, 255, 255); transform-origin: 223.31px 244.63px;" id="elcpiova3tbrf" class="animable"></path></g></g><path d="M238.48,227h-3.23a1.76,1.76,0,0,0-1.76,1.77v0a1.77,1.77,0,0,0,.95,1.56v28.4a2,2,0,0,0,2,2h.79a2,2,0,0,0,2-2v-28.4a1.77,1.77,0,0,0,1-1.56v0A1.76,1.76,0,0,0,238.48,227Z" style="fill: #294B98; transform-origin: 236.86px 243.865px;" id="el1x0rvl2hxks" class="animable"></path><g id="el06flgyxb3ubn"><path d="M238.48,227h-3.23a1.76,1.76,0,0,0-1.76,1.77v0a1.77,1.77,0,0,0,.95,1.56v28.4a2,2,0,0,0,2,2h.79a2,2,0,0,0,2-2v-28.4a1.77,1.77,0,0,0,1-1.56v0A1.76,1.76,0,0,0,238.48,227Z" style="fill: rgb(255, 255, 255); opacity: 0.6; transform-origin: 236.86px 243.865px;" class="animable" id="elsio3wp30z4f"></path></g><path d="M234.17,227.37a5.69,5.69,0,0,0,2.7.45,5.75,5.75,0,0,0,2.7-.45,1.75,1.75,0,0,0-1.09-.39h-3.23A1.72,1.72,0,0,0,234.17,227.37Z" style="fill: #294B98; transform-origin: 236.87px 227.409px;" id="eloweo1w7fm2q" class="animable"></path><path d="M236.87,243.66c-.84,0-1.51-.21-1.53-.48v15.55a1.13,1.13,0,0,0,1.13,1.12h.79a1.13,1.13,0,0,0,1.13-1.12V243.18C238.37,243.45,237.7,243.66,236.87,243.66Z" style="fill: #294B98; transform-origin: 236.865px 251.515px;" id="elnvkx3dym9u" class="animable"></path><path d="M238.4,243.17c0,.27-.69.49-1.53.49s-1.53-.22-1.53-.49.68-.49,1.53-.49S238.4,242.9,238.4,243.17Z" style="fill: #294B98; transform-origin: 236.87px 243.17px;" id="elr5v3cag1skl" class="animable"></path><g id="el7o8u2i5r2xf"><path d="M238.4,243.17c0,.27-.69.49-1.53.49s-1.53-.22-1.53-.49.68-.49,1.53-.49S238.4,242.9,238.4,243.17Z" style="opacity: 0.3; transform-origin: 236.87px 243.17px;" class="animable" id="el69ob6i3je25"></path></g><g id="elurkfzyozwx"><g style="opacity: 0.8; transform-origin: 235.77px 244.63px;" class="animable" id="el2rsdge2oftn"><path d="M235.32,230.53v28.2a.45.45,0,0,0,.9,0v-28.2a.45.45,0,0,0-.9,0Z" style="fill: rgb(255, 255, 255); transform-origin: 235.77px 244.63px;" id="el8tex4zhant" class="animable"></path></g></g><path d="M250.94,227h-3.23a1.76,1.76,0,0,0-1.76,1.77v0a1.77,1.77,0,0,0,1,1.56v28.4a2,2,0,0,0,2,2h.8a2,2,0,0,0,2-2v-28.4a1.77,1.77,0,0,0,.95-1.56v0A1.76,1.76,0,0,0,250.94,227Z" style="fill: #294B98; transform-origin: 249.325px 243.865px;" id="el3wrq616gfbg" class="animable"></path><g id="elm8wig64oxd"><path d="M250.94,227h-3.23a1.76,1.76,0,0,0-1.76,1.77v0a1.77,1.77,0,0,0,1,1.56v28.4a2,2,0,0,0,2,2h.8a2,2,0,0,0,2-2v-28.4a1.77,1.77,0,0,0,.95-1.56v0A1.76,1.76,0,0,0,250.94,227Z" style="fill: rgb(255, 255, 255); opacity: 0.6; transform-origin: 249.325px 243.865px;" class="animable" id="ele2zyrkqexx"></path></g><path d="M246.63,227.37a5.69,5.69,0,0,0,2.7.45,5.75,5.75,0,0,0,2.7-.45,1.75,1.75,0,0,0-1.09-.39h-3.23A1.72,1.72,0,0,0,246.63,227.37Z" style="fill: #294B98; transform-origin: 249.33px 227.409px;" id="elq7w2ymzu1g" class="animable"></path><path d="M249.33,238.15c-.84,0-1.51-.21-1.53-.48v21.06a1.13,1.13,0,0,0,1.13,1.12h.8a1.12,1.12,0,0,0,1.12-1.12V237.67C250.83,237.94,250.16,238.15,249.33,238.15Z" style="fill: #294B98; transform-origin: 249.325px 248.76px;" id="el19ryqy9642f" class="animable"></path><path d="M250.86,237.66c0,.27-.69.49-1.53.49s-1.53-.22-1.53-.49.68-.49,1.53-.49S250.86,237.39,250.86,237.66Z" style="fill: #294B98; transform-origin: 249.33px 237.66px;" id="elupy8hcpx5kn" class="animable"></path><g id="eliomo9qp1flm"><path d="M250.86,237.66c0,.27-.69.49-1.53.49s-1.53-.22-1.53-.49.68-.49,1.53-.49S250.86,237.39,250.86,237.66Z" style="opacity: 0.3; transform-origin: 249.33px 237.66px;" class="animable" id="ele8d25e46hdf"></path></g><g id="el0cjuti1ylt88"><g style="opacity: 0.8; transform-origin: 248.23px 244.63px;" class="animable" id="el83avncztuji"><path d="M247.78,230.53v28.2a.45.45,0,0,0,.9,0v-28.2a.45.45,0,0,0-.9,0Z" style="fill: rgb(255, 255, 255); transform-origin: 248.23px 244.63px;" id="eluabotm4icb" class="animable"></path></g></g><path d="M263.4,227h-3.22a1.77,1.77,0,0,0-1.77,1.77v0a1.76,1.76,0,0,0,1,1.56v28.4a2,2,0,0,0,2,2h.8a2,2,0,0,0,2-2v-28.4a1.75,1.75,0,0,0,1-1.56v0A1.76,1.76,0,0,0,263.4,227Z" style="fill: #294B98; transform-origin: 261.81px 243.865px;" id="elvndy460ptdg" class="animable"></path><g id="el5sgjqhs3al3"><path d="M263.4,227h-3.22a1.77,1.77,0,0,0-1.77,1.77v0a1.76,1.76,0,0,0,1,1.56v28.4a2,2,0,0,0,2,2h.8a2,2,0,0,0,2-2v-28.4a1.75,1.75,0,0,0,1-1.56v0A1.76,1.76,0,0,0,263.4,227Z" style="fill: rgb(255, 255, 255); opacity: 0.6; transform-origin: 261.81px 243.865px;" class="animable" id="el67p0vaspvus"></path></g><path d="M259.09,227.37a5.69,5.69,0,0,0,2.7.45,5.75,5.75,0,0,0,2.7-.45,1.75,1.75,0,0,0-1.09-.39h-3.22A1.73,1.73,0,0,0,259.09,227.37Z" style="fill: #294B98; transform-origin: 261.79px 227.409px;" id="elv2fv9tpx4vd" class="animable"></path><path d="M261.79,243.66c-.84,0-1.51-.21-1.52-.48v15.55a1.12,1.12,0,0,0,1.12,1.12h.8a1.12,1.12,0,0,0,1.12-1.12V243.18C263.3,243.45,262.62,243.66,261.79,243.66Z" style="fill: #294B98; transform-origin: 261.79px 251.515px;" id="el43h75k10h0v" class="animable"></path><path d="M263.32,243.17c0,.27-.69.49-1.53.49s-1.53-.22-1.53-.49.68-.49,1.53-.49S263.32,242.9,263.32,243.17Z" style="fill: #294B98; transform-origin: 261.79px 243.17px;" id="elwiz5vok3vns" class="animable"></path><g id="ell8w4y8eaqw"><path d="M263.32,243.17c0,.27-.69.49-1.53.49s-1.53-.22-1.53-.49.68-.49,1.53-.49S263.32,242.9,263.32,243.17Z" style="opacity: 0.3; transform-origin: 261.79px 243.17px;" class="animable" id="elw1rhhbotpwo"></path></g><g id="el2tnf2aow3d4"><g style="opacity: 0.8; transform-origin: 260.69px 244.63px;" class="animable" id="elhrhk3gkkq9s"><path d="M260.24,230.53v28.2a.45.45,0,0,0,.9,0v-28.2a.45.45,0,0,0-.9,0Z" style="fill: rgb(255, 255, 255); transform-origin: 260.69px 244.63px;" id="ell5n1xeua1d" class="animable"></path></g></g><path d="M271.43,234.56a1,1,0,0,0,1-1v-1a1,1,0,0,0-1-1h-56a1,1,0,0,0-1,1v1a1,1,0,0,0,1,1H217v28h-1.58a1,1,0,0,0-1,1v1a1,1,0,0,0,1,1h56a1,1,0,0,0,1-1v-1a1,1,0,0,0-1-1h-1.58v-28Zm-4.12,28h-47.8v-28h47.8Z" style="fill: rgb(38, 50, 56); transform-origin: 243.425px 248.56px;" id="elzeufrtr015" class="animable"></path><g id="elw58av3s9k2r"><path d="M271.43,234.56a1,1,0,0,0,1-1v-1a1,1,0,0,0-1-1h-56a1,1,0,0,0-1,1v1a1,1,0,0,0,1,1H217v28h-1.58a1,1,0,0,0-1,1v1a1,1,0,0,0,1,1h56a1,1,0,0,0,1-1v-1a1,1,0,0,0-1-1h-1.58v-28Zm-4.12,28h-47.8v-28h47.8Z" style="fill: rgb(255, 255, 255); opacity: 0.4; transform-origin: 243.425px 248.56px;" class="animable" id="el1mnb8scz81a"></path></g><g id="elwt4mvqnnu0m"><path d="M304,194.29h1.72a1.87,1.87,0,0,1,1.87,1.87v17.89a0,0,0,0,1,0,0h-5.46a0,0,0,0,1,0,0V196.16a1.87,1.87,0,0,1,1.87-1.87Z" style="fill: rgb(38, 50, 56); transform-origin: 304.86px 204.17px; transform: rotate(26.82deg);" class="animable" id="elae2lfsnq0yj"></path></g><g id="eldxx0jwx39jc"><path d="M304,194.29h1.72a1.87,1.87,0,0,1,1.87,1.87v17.89a0,0,0,0,1,0,0h-5.46a0,0,0,0,1,0,0V196.16a1.87,1.87,0,0,1,1.87-1.87Z" style="fill: rgb(255, 255, 255); opacity: 0.3; transform-origin: 304.86px 204.17px; transform: rotate(26.82deg);" class="animable" id="elu0tue9tkz98"></path></g><rect x="302.36" y="216.01" width="5.08" height="49.47" style="fill: #294B98; transform-origin: 304.9px 240.745px;" id="elwb66j0qb1gr" class="animable"></rect><rect x="288.73" y="216.01" width="5.08" height="5.58" style="fill: #294B98; transform-origin: 291.27px 218.8px;" id="elc9faenem6jv" class="animable"></rect><g id="el3veyipyxwex"><rect x="302.36" y="216.01" width="5.08" height="49.47" style="opacity: 0.2; transform-origin: 304.9px 240.745px;" class="animable" id="el1hnk58fwqrs"></rect></g><g id="eljq0be1zhv"><rect x="288.73" y="216.01" width="5.08" height="5.58" style="opacity: 0.2; transform-origin: 291.27px 218.8px;" class="animable" id="elx68zpjfel8"></rect></g><rect x="291.53" y="207.84" width="4.06" height="8.17" style="fill: #294B98; transform-origin: 293.56px 211.925px;" id="el6yg4f0i4y8n" class="animable"></rect><g id="elozayy6d22f"><rect x="291.53" y="207.84" width="4.06" height="8.17" style="opacity: 0.1; transform-origin: 293.56px 211.925px;" class="animable" id="elo2hftmktwge"></rect></g><path d="M313.78,216H295.59v-8.17l16.14,3.46a2.6,2.6,0,0,1,2,2.54Z" style="fill: #294B98; transform-origin: 304.685px 211.915px;" id="elxv433m2c55d" class="animable"></path><g id="el38f6g0zz09"><path d="M313.78,216H295.59v-8.17l16.14,3.46a2.6,2.6,0,0,1,2,2.54Z" style="fill: rgb(255, 255, 255); opacity: 0.2; transform-origin: 304.685px 211.915px;" class="animable" id="elt4aomsiucms"></path></g><path d="M294.62,224.84l-5.79-2.71a.28.28,0,0,1,.12-.54h13.27a.28.28,0,0,1,.12.54l-5.78,2.71A2.27,2.27,0,0,1,294.62,224.84Z" style="fill: rgb(38, 50, 56); transform-origin: 295.585px 223.324px;" id="elbpce8d7tce" class="animable"></path><g id="el6yp9cjq2i76"><rect x="291.75" y="225.04" width="7.67" height="5.19" rx="2.14" style="fill: rgb(38, 50, 56); transform-origin: 295.585px 227.635px; transform: rotate(-90deg);" class="animable" id="elg55pmnri2f5"></rect></g><g id="elled627go8jn"><rect x="291.75" y="225.04" width="7.67" height="5.19" rx="2.14" style="fill: rgb(255, 255, 255); opacity: 0.6; transform-origin: 295.585px 227.635px; transform: rotate(-90deg);" class="animable" id="elkppzh8z6gcs"></rect></g><g id="elrr1q7zoqdue"><rect x="286.3" y="223.93" width="7.67" height="5.19" rx="2.14" style="fill: rgb(38, 50, 56); transform-origin: 290.135px 226.525px; transform: rotate(-67.5deg);" class="animable" id="el7mkybzggn1e"></rect></g><g id="elusf241o61pn"><rect x="297.2" y="223.93" width="7.67" height="5.19" rx="2.14" style="fill: rgb(38, 50, 56); transform-origin: 301.035px 226.525px; transform: rotate(-112.5deg);" class="animable" id="el8kb8dzew7ny"></rect></g><g id="elnytpk3gvh3h"><g style="opacity: 0.3; transform-origin: 295.585px 226.525px;" class="animable" id="el62e725f9fvj"><g id="eloo81bdmrqtm"><rect x="286.3" y="223.93" width="7.67" height="5.19" rx="2.14" style="fill: rgb(255, 255, 255); transform-origin: 290.135px 226.525px; transform: rotate(-67.5deg);" class="animable" id="elacg4owbobdt"></rect></g><g id="el61ga3d7uaoc"><rect x="297.2" y="223.93" width="7.67" height="5.19" rx="2.14" style="fill: rgb(255, 255, 255); transform-origin: 301.035px 226.525px; transform: rotate(-112.5deg);" class="animable" id="eld8or8gwpwpd"></rect></g></g></g><path d="M307.44,265.48h17.18a2.35,2.35,0,0,0,2.29-2.85l-10-44.72a2.42,2.42,0,0,0-2.37-1.9H293.81v5.58h13.63Z" style="fill: #294B98; transform-origin: 310.387px 240.745px;" id="elc60qmqz2kw" class="animable"></path><g id="el68bcy8mge57"><path d="M307.44,265.48h17.18a2.35,2.35,0,0,0,2.29-2.85l-10-44.72a2.42,2.42,0,0,0-2.37-1.9H293.81v5.58h13.63Z" style="fill: rgb(255, 255, 255); opacity: 0.3; transform-origin: 310.387px 240.745px;" class="animable" id="el6k1shgvad73"></path></g><rect x="277.75" y="241.53" width="20.6" height="4.01" style="fill: rgb(38, 50, 56); transform-origin: 288.05px 243.535px;" id="el3ka4sgha5br" class="animable"></rect><rect x="298.34" y="241.53" width="20.6" height="4.01" style="fill: rgb(38, 50, 56); transform-origin: 308.64px 243.535px;" id="ell8h4mhg0btd" class="animable"></rect><g id="el50fpruyftbo"><rect x="277.75" y="241.53" width="20.6" height="4.01" style="fill: rgb(255, 255, 255); opacity: 0.7; transform-origin: 288.05px 243.535px;" class="animable" id="el4thjnmchc94"></rect></g><g id="elu25dhfufreo"><rect x="298.34" y="241.53" width="20.6" height="4.01" style="fill: rgb(255, 255, 255); opacity: 0.3; transform-origin: 308.64px 243.535px;" class="animable" id="elhv11tom61ub"></rect></g></g><g id="freepik--Cloud--inject-1" class="animable" style="transform-origin: 217.464px 135.774px;"><path d="M247.53,157.38a7,7,0,0,0,.25-1.82c0-5.31-6.19-9.62-13.84-9.62a17,17,0,0,0-10.24,3.17,24.55,24.55,0,0,0-4.15-.35c-10.68,0-19.33,6.66-19.33,14.89,0,5.61,4,10.49,10,13,.6,6.38,8.19,11.43,17.48,11.43,6.74,0,12.58-2.66,15.52-6.55.23,0,.45,0,.68,0,9.69,0,17.54-5.48,17.54-12.24C261.42,163.46,255.46,158.55,247.53,157.38Z" style="fill: #294B98; transform-origin: 230.83px 167.008px;" id="el6jnvufov617" class="animable"></path><g id="elszg8heqstj"><path d="M247.53,157.38a7,7,0,0,0,.25-1.82c0-5.31-6.19-9.62-13.84-9.62a17,17,0,0,0-10.24,3.17,24.55,24.55,0,0,0-4.15-.35c-10.68,0-19.33,6.66-19.33,14.89,0,5.61,4,10.49,10,13,.6,6.38,8.19,11.43,17.48,11.43,6.74,0,12.58-2.66,15.52-6.55.23,0,.45,0,.68,0,9.69,0,17.54-5.48,17.54-12.24C261.42,163.46,255.46,158.55,247.53,157.38Z" style="fill: rgb(255, 255, 255); opacity: 0.8; transform-origin: 230.83px 167.008px;" class="animable" id="elxffjtuao8cg"></path></g><path d="M212.46,157.88c.24-2,.63-2,.87,0a2.56,2.56,0,0,0,3.75,2.16c1.83-.77,2-.44.44.75a2.57,2.57,0,0,0,0,4.34c1.58,1.19,1.39,1.52-.44.75a2.56,2.56,0,0,0-3.75,2.16c-.24,2-.63,2-.87,0a2.56,2.56,0,0,0-3.75-2.16c-1.82.77-2,.44-.43-.75a2.57,2.57,0,0,0,0-4.34c-1.59-1.19-1.39-1.52.43-.75A2.56,2.56,0,0,0,212.46,157.88Z" style="fill: rgb(255, 255, 255); transform-origin: 212.898px 162.96px;" id="elbjmt2zdc75n" class="animable"></path><polygon points="242.55 150.59 243.87 161.55 254.03 157.22 245.2 163.85 254.03 170.47 243.87 166.14 242.55 177.1 241.22 166.14 231.07 170.47 239.9 163.85 231.07 157.22 241.22 161.55 242.55 150.59" style="fill: rgb(255, 255, 255); transform-origin: 242.55px 163.845px;" id="elgitjuk94igt" class="animable"></polygon><path d="M221.82,126.2a5.55,5.55,0,0,0,.17-1.28c0-4.91-6.57-8.89-14.68-8.89-7.93,0-14.38,3.8-14.66,8.56-5.84,1.23-10.07,4.91-10.07,9.25,0,5.35,6.43,9.69,14.37,9.69a19.32,19.32,0,0,0,8.17-1.73,19.33,19.33,0,0,0,8.14,1.73c7.87,0,14.25-4.32,14.25-9.64C227.51,130.75,225.27,128,221.82,126.2Z" style="fill: #294B98; transform-origin: 205.045px 129.78px;" id="elxzzep66cw1d" class="animable"></path><g id="el8dm1mhmebp7"><path d="M221.82,126.2a5.55,5.55,0,0,0,.17-1.28c0-4.91-6.57-8.89-14.68-8.89-7.93,0-14.38,3.8-14.66,8.56-5.84,1.23-10.07,4.91-10.07,9.25,0,5.35,6.43,9.69,14.37,9.69a19.32,19.32,0,0,0,8.17-1.73,19.33,19.33,0,0,0,8.14,1.73c7.87,0,14.25-4.32,14.25-9.64C227.51,130.75,225.27,128,221.82,126.2Z" style="fill: rgb(255, 255, 255); opacity: 0.6; transform-origin: 205.045px 129.78px;" class="animable" id="elx2mfnuwz37g"></path></g><polygon points="209.35 120.24 210.23 127.53 216.98 124.65 211.11 129.05 216.98 133.45 210.23 130.57 209.35 137.86 208.47 130.57 201.72 133.45 207.59 129.05 201.72 124.65 208.47 127.53 209.35 120.24" style="fill: rgb(255, 255, 255); transform-origin: 209.35px 129.05px;" id="elb249n7zrkm" class="animable"></polygon><path d="M232,93.42c-.39-4.6-7-8.26-15.11-8.26-8.37,0-15.15,3.89-15.15,8.68,0,4,4.68,7.34,11,8.36,0,.11,0,.22,0,.33,0,5.48,6.17,9.93,13.78,9.93s13.77-4.45,13.77-9.93C240.32,98.45,236.89,94.94,232,93.42Z" style="fill: #294B98; transform-origin: 221.015px 98.81px;" id="elf5mtsjrhlfn" class="animable"></path><g id="el6xp204j0tew"><path d="M232,93.42c-.39-4.6-7-8.26-15.11-8.26-8.37,0-15.15,3.89-15.15,8.68,0,4,4.68,7.34,11,8.36,0,.11,0,.22,0,.33,0,5.48,6.17,9.93,13.78,9.93s13.77-4.45,13.77-9.93C240.32,98.45,236.89,94.94,232,93.42Z" style="fill: rgb(255, 255, 255); opacity: 0.7; transform-origin: 221.015px 98.81px;" class="animable" id="el7yh0skyvg1i"></path></g><path d="M229.11,94.94c.23-1.93.61-1.93.85,0a2.51,2.51,0,0,0,3.67,2.13c1.79-.77,2-.44.43.73a2.51,2.51,0,0,0,0,4.25c1.55,1.17,1.36,1.5-.43.73a2.51,2.51,0,0,0-3.67,2.13c-.24,1.93-.62,1.93-.85,0a2.52,2.52,0,0,0-3.68-2.13c-1.79.77-2,.44-.42-.73a2.52,2.52,0,0,0,0-4.25c-1.56-1.17-1.37-1.5.42-.73A2.52,2.52,0,0,0,229.11,94.94Z" style="fill: rgb(255, 255, 255); transform-origin: 229.531px 99.925px;" id="elihtet9voui" class="animable"></path><path d="M254.39,127.75c.41-1.54-3-3.14-6.15-4.19.65-3.24,1-7-.56-7.42s-3.13,3-4.19,6.14c-3.24-.65-7-1-7.41.57s3,3.13,6.14,4.19c-.65,3.23-1,7,.56,7.41s3.14-3,4.19-6.14C250.21,129,254,129.28,254.39,127.75Zm-7-10.64c.4.2.59,2.47-.13,6.14-.49-.16-1-.29-1.4-.41l-1.42-.35C245.68,119,247,117.09,247.42,117.11Zm-.7,8.58c-.14.51-.28,1-.42,1.45q-.7-.15-1.47-.36c-.5-.13-1-.27-1.45-.42.11-.47.23-1,.36-1.46s.28-1,.42-1.45c.48.1,1,.22,1.47.36s1,.28,1.45.42C247,124.7,246.86,125.19,246.72,125.69ZM237,123.11c.21-.4,2.48-.59,6.14.13-.15.49-.29,1-.4,1.4s-.24.91-.35,1.41C238.89,124.85,237,123.55,237,123.11Zm6,10.37c-.4-.2-.59-2.47.13-6.13.49.15,1,.28,1.4.4s.91.24,1.41.35C244.78,131.63,243.48,133.51,243.05,133.48Zm4.23-6.13c.15-.49.29-1,.41-1.4s.23-.91.35-1.41c3.53,1.21,5.4,2.51,5.38,2.94C253.22,127.88,251,128.07,247.28,127.35Z" style="fill: #294B98; transform-origin: 245.235px 125.294px;" id="el8mwrktr6kxs" class="animable"></path><g id="elcnetvad8uf"><path d="M254.39,127.75c.41-1.54-3-3.14-6.15-4.19.65-3.24,1-7-.56-7.42s-3.13,3-4.19,6.14c-3.24-.65-7-1-7.41.57s3,3.13,6.14,4.19c-.65,3.23-1,7,.56,7.41s3.14-3,4.19-6.14C250.21,129,254,129.28,254.39,127.75Zm-7-10.64c.4.2.59,2.47-.13,6.14-.49-.16-1-.29-1.4-.41l-1.42-.35C245.68,119,247,117.09,247.42,117.11Zm-.7,8.58c-.14.51-.28,1-.42,1.45q-.7-.15-1.47-.36c-.5-.13-1-.27-1.45-.42.11-.47.23-1,.36-1.46s.28-1,.42-1.45c.48.1,1,.22,1.47.36s1,.28,1.45.42C247,124.7,246.86,125.19,246.72,125.69ZM237,123.11c.21-.4,2.48-.59,6.14.13-.15.49-.29,1-.4,1.4s-.24.91-.35,1.41C238.89,124.85,237,123.55,237,123.11Zm6,10.37c-.4-.2-.59-2.47.13-6.13.49.15,1,.28,1.4.4s.91.24,1.41.35C244.78,131.63,243.48,133.51,243.05,133.48Zm4.23-6.13c.15-.49.29-1,.41-1.4s.23-.91.35-1.41c3.53,1.21,5.4,2.51,5.38,2.94C253.22,127.88,251,128.07,247.28,127.35Z" style="fill: rgb(255, 255, 255); opacity: 0.5; transform-origin: 245.235px 125.294px;" class="animable" id="elsnbrxssehod"></path></g><path d="M247.29,125.85a17.16,17.16,0,0,0,2.09-1.6c1-.88,1.29-1.52,1-2-.49-.84-2.8,0-4.64.94-1.13-1.71-2.7-3.61-3.54-3.13-.43.25-.46,1-.07,2.21a16.24,16.24,0,0,0,1,2.43c-1.71,1.13-3.62,2.7-3.13,3.54a.64.64,0,0,0,.42.3c.87.23,2.7-.49,4.21-1.24.94,1.41,2.16,2.94,3,3.18a.64.64,0,0,0,.51-.05C249.07,130,248.2,127.68,247.29,125.85Zm2.57-3.38a.23.23,0,0,1,.12.08c.05.08,0,.49-.94,1.33a16.13,16.13,0,0,1-2,1.52c-.17-.32-.33-.62-.48-.88s-.33-.55-.52-.86C248.06,122.67,249.44,122.36,249.86,122.47Zm-3.22,3.2-.88.54c-.31.18-.61.34-.9.49-.18-.28-.36-.56-.54-.88s-.34-.6-.5-.9c.28-.18.57-.35.89-.54s.61-.34.9-.49c.18.27.35.56.54.88S246.49,125.38,246.64,125.67Zm-4-3.5c-.36-1.19-.23-1.58-.15-1.63a.22.22,0,0,1,.14,0c.42.11,1.47,1.07,2.71,2.93l-.88.48-.86.52A16.29,16.29,0,0,1,242.64,122.17ZM240.48,128c-.15-.26.79-1.42,2.92-2.85.16.3.32.59.49.88s.33.56.52.86C242.11,128.07,240.63,128.3,240.48,128Zm7.5,2c-.26.15-1.43-.79-2.85-2.93.32-.16.62-.33.88-.48s.58-.34.86-.52C248,128.42,248.24,129.9,248,130.05Z" style="fill: #294B98; transform-origin: 245.204px 125.248px;" id="el96bsh865qvu" class="animable"></path><path d="M183.15,90.22a16.48,16.48,0,0,0,.12-2.63c-.06-1.29-.32-2-.81-2-1-.17-1.79,2.16-2.27,4.15-2-.24-4.51-.27-4.68.69-.09.49.45,1,1.64,1.48a17,17,0,0,0,2.51.79c-.24,2-.27,4.51.69,4.68a.67.67,0,0,0,.5-.13c.74-.52,1.37-2.38,1.77-4,1.67.19,3.64.24,4.38-.27a.68.68,0,0,0,.3-.42C187.47,91.53,185.14,90.7,183.15,90.22Zm-.92-4.14a.17.17,0,0,1,.14,0c.09,0,.35.34.41,1.58a17.25,17.25,0,0,1-.12,2.49l-1-.2-1-.15C181.22,87.58,181.87,86.32,182.23,86.08Zm.37,4.52c0,.33-.1.67-.16,1s-.13.68-.2,1l-1-.16-1-.2c0-.33.09-.66.16-1s.13-.69.2-1l1,.16Zm-5.26.8c-1.14-.49-1.35-.85-1.34-.93a.24.24,0,0,1,.09-.12c.36-.25,1.76-.43,4-.17-.08.35-.14.68-.2,1s-.1.63-.15,1A17.27,17.27,0,0,1,177.34,91.4Zm3.1,5.43c-.3,0-.58-1.51-.29-4.07.32.08.64.14,1,.2s.64.11,1,.15C181.51,95.61,180.73,96.89,180.44,96.83Zm6.37-4.43c-.06.29-1.53.58-4.08.29.08-.35.15-.69.2-1s.11-.67.16-1C185.58,91.33,186.86,92.1,186.81,92.4Z" style="fill: #294B98; transform-origin: 181.405px 91.484px;" id="el0jonlfbpgove" class="animable"></path><path d="M189.18,86c-.91-1.3-4.34.28-7.16,2-2.06-2.59-4.73-5.26-6-4.35s.28,4.34,2,7.16c-2.59,2.06-5.26,4.73-4.35,6s4.34-.28,7.16-2c2.06,2.58,4.73,5.25,6,4.35s-.28-4.34-2-7.17C187.41,90,190.08,87.32,189.18,86Zm-12.63-1.54c.41-.17,2.27,1.15,4.61,4.06-.43.28-.84.55-1.21.81s-.77.54-1.18.85C176.85,87,176.26,84.8,176.55,84.48Zm6.12,6.07c.3.43.57.85.83,1.26-.38.29-.78.59-1.22.89s-.85.57-1.25.83c-.29-.38-.59-.78-.89-1.22s-.58-.85-.84-1.25c.39-.29.79-.59,1.22-.89s.85-.58,1.26-.84C182.07,89.72,182.37,90.12,182.67,90.55Zm-8.22,5.73c-.17-.41,1.15-2.27,4.06-4.61.28.44.55.85.81,1.22s.55.76.85,1.17C177,96,174.77,96.58,174.45,96.28Zm11.8,2.1c-.41.18-2.27-1.14-4.61-4,.44-.28.85-.56,1.22-.81s.76-.55,1.17-.86C186,95.86,186.55,98.06,186.25,98.38Zm-1.95-7.19c-.28-.43-.55-.84-.81-1.21s-.55-.77-.86-1.18c3.2-1.92,5.4-2.51,5.72-2.22S187.21,88.85,184.3,91.19Z" style="fill: #294B98; transform-origin: 181.423px 91.4032px;" id="elzibt47r7wil" class="animable"></path><g id="el79pn41ixd9i"><path d="M189.18,86c-.91-1.3-4.34.28-7.16,2-2.06-2.59-4.73-5.26-6-4.35s.28,4.34,2,7.16c-2.59,2.06-5.26,4.73-4.35,6s4.34-.28,7.16-2c2.06,2.58,4.73,5.25,6,4.35s-.28-4.34-2-7.17C187.41,90,190.08,87.32,189.18,86Zm-12.63-1.54c.41-.17,2.27,1.15,4.61,4.06-.43.28-.84.55-1.21.81s-.77.54-1.18.85C176.85,87,176.26,84.8,176.55,84.48Zm6.12,6.07c.3.43.57.85.83,1.26-.38.29-.78.59-1.22.89s-.85.57-1.25.83c-.29-.38-.59-.78-.89-1.22s-.58-.85-.84-1.25c.39-.29.79-.59,1.22-.89s.85-.58,1.26-.84C182.07,89.72,182.37,90.12,182.67,90.55Zm-8.22,5.73c-.17-.41,1.15-2.27,4.06-4.61.28.44.55.85.81,1.22s.55.76.85,1.17C177,96,174.77,96.58,174.45,96.28Zm11.8,2.1c-.41.18-2.27-1.14-4.61-4,.44-.28.85-.56,1.22-.81s.76-.55,1.17-.86C186,95.86,186.55,98.06,186.25,98.38Zm-1.95-7.19c-.28-.43-.55-.84-.81-1.21s-.55-.77-.86-1.18c3.2-1.92,5.4-2.51,5.72-2.22S187.21,88.85,184.3,91.19Z" style="fill: rgb(255, 255, 255); opacity: 0.5; transform-origin: 181.423px 91.4032px;" class="animable" id="el0alkojjemnh"></path></g></g><g id="freepik--character-1--inject-1" class="animable" style="transform-origin: 171.94px 262.496px;"><path d="M229,208.23l-7.88-10.45V184.87a2.26,2.26,0,0,0,1.73-2.19v0a2.26,2.26,0,0,0-2.26-2.26h-4.14a2.26,2.26,0,0,0-2.26,2.26v0a2.26,2.26,0,0,0,1.73,2.19v12.91L208,208.23a3,3,0,0,0,2.43,4.87h16.1A3,3,0,0,0,229,208.23Z" style="fill: #294B98; transform-origin: 218.501px 196.761px;" id="el1aj5kl8un8c" class="animable"></path><g id="elynzdyz5ix5"><path d="M229,208.23l-7.88-10.45V184.87a2.26,2.26,0,0,0,1.73-2.19v0a2.26,2.26,0,0,0-2.26-2.26h-4.14a2.26,2.26,0,0,0-2.26,2.26v0a2.26,2.26,0,0,0,1.73,2.19v12.91L208,208.23a3,3,0,0,0,2.43,4.87h16.1A3,3,0,0,0,229,208.23Z" style="fill: rgb(255, 255, 255); opacity: 0.6; transform-origin: 218.501px 196.761px;" class="animable" id="elvqbllgk1ftb"></path></g><path d="M215,180.88a7.33,7.33,0,0,0,3.46.58,7.41,7.41,0,0,0,3.47-.58,2.24,2.24,0,0,0-1.4-.5h-4.14A2.19,2.19,0,0,0,215,180.88Z" style="fill: #294B98; transform-origin: 218.465px 180.93px;" id="el3pw3oxxilt4" class="animable"></path><path d="M228.05,208.93l-3.66-4.86c0,.38-2.65.68-5.9.68s-5.88-.3-5.9-.68l-3.66,4.86a1.83,1.83,0,0,0-.18,2,1.85,1.85,0,0,0,1.69,1h16.1a1.89,1.89,0,0,0,1.51-3Z" style="fill: #294B98; transform-origin: 218.472px 208px;" id="elt4qzexu4tuh" class="animable"></path><ellipse cx="218.49" cy="204.07" rx="5.9" ry="0.68" style="fill: #294B98; transform-origin: 218.49px 204.07px;" id="el6z3sfcmwxzq" class="animable"></ellipse><g id="elc6bhfndftin"><ellipse cx="218.49" cy="204.07" rx="5.9" ry="0.68" style="opacity: 0.3; transform-origin: 218.49px 204.07px;" class="animable" id="elgdos2z9ew5o"></ellipse></g><g id="elvqnmrb6l3d"><path d="M218,198.38s-7.38,11.17-5,11.87S218,198.38,218,198.38Z" style="fill: rgb(255, 255, 255); opacity: 0.6; transform-origin: 215.264px 204.329px;" class="animable" id="el8asvwkan7qu"></path></g><polygon points="171.18 133.58 175.34 135.27 175.1 136.54 173.52 136.5 171.78 138.06 171.18 133.58" style="fill: #294B98; transform-origin: 173.26px 135.82px;" id="elvx1tgt0fst" class="animable"></polygon><g id="ellybxdgxti3d"><polygon points="171.18 133.58 175.34 135.27 175.1 136.54 173.52 136.5 171.78 138.06 171.18 133.58" style="fill: rgb(255, 255, 255); opacity: 0.3; transform-origin: 173.26px 135.82px;" class="animable" id="elzfj37wxbnn"></polygon></g><path d="M165.63,124.25s5.69-2.13,6.91,1.47-6.23,3.6-6.23,3.6Z" style="fill: rgb(38, 50, 56); transform-origin: 169.153px 126.472px;" id="elejo5vv1b95q" class="animable"></path><g id="ela3oejnabs5u"><path d="M165.63,124.25s5.69-2.13,6.91,1.47-6.23,3.6-6.23,3.6Z" style="opacity: 0.5; transform-origin: 169.153px 126.472px;" class="animable" id="elodjyfjl1e4p"></path></g><path d="M146.69,159.33s5.17-.65,4.89-10.19c0,0,4.74-2.28,7.91.47s-2.61,9.47,1.31,12.15S146.69,159.33,146.69,159.33Z" style="fill: rgb(255, 195, 189); transform-origin: 154.024px 155.395px;" id="elz9p54hsogi" class="animable"></path><g id="elbtj1l8jmfpq"><path d="M156.71,153.53a17.35,17.35,0,0,0,2.9,3.34c.24-1.24.62-2.53.78-3.72Z" style="opacity: 0.1; transform-origin: 158.55px 155.01px;" class="animable" id="elknpt2cri1ms"></path></g><path d="M172.53,135.5c.08.68-.21,1.27-.66,1.32s-.9-.48-1-1.14.21-1.28.66-1.32S172.45,134.82,172.53,135.5Z" style="fill: rgb(38, 50, 56); transform-origin: 171.697px 135.591px;" id="elc467cyivww" class="animable"></path><path d="M170.86,136.27l3.89,4.92a4.69,4.69,0,0,1-4.15.84Z" style="fill: rgb(186, 77, 60); transform-origin: 172.675px 139.234px;" id="elicige1xmaf" class="animable"></path><path d="M145.89,133.62c.63,9.06.7,12.92,5.31,17.53,7,4.69,18,4.21,20.05-4.87,1.88-8.16.55-21.57-8.36-25.17a12.41,12.41,0,0,0-17,12.51Z" style="fill: rgb(255, 195, 189); transform-origin: 158.92px 137.145px;" id="el6dqazy5pywr" class="animable"></path><path d="M168.88,132.4a.37.37,0,0,0,.34,0,2.84,2.84,0,0,1,2.57,0,.35.35,0,1,0,.36-.61,3.47,3.47,0,0,0-3.24,0,.36.36,0,0,0-.17.47h0A.37.37,0,0,0,168.88,132.4Z" style="fill: rgb(38, 50, 56); transform-origin: 170.517px 131.919px;" id="elsp6wq1gk888" class="animable"></path><path d="M142.15,162.23s-1-6.23,10.41-4.71,10.31,5.15,10.31,5.15Z" style="fill: #294B98; transform-origin: 152.513px 159.976px;" id="elfe6vl3ply55" class="animable"></path><g id="elocfvbtbq2pa"><path d="M142.15,162.23s-1-6.23,10.41-4.71,10.31,5.15,10.31,5.15Z" style="fill: rgb(255, 255, 255); opacity: 0.6; transform-origin: 152.513px 159.976px;" class="animable" id="ela4tb5hzr08"></path></g><path d="M122.41,297.24l2.13,8.54s-11,31.3-6.05,92.49h7.72L142,304.35Z" style="fill: rgb(255, 195, 189); transform-origin: 129.605px 347.755px;" id="elrimzuiq0kw9" class="animable"></path><path d="M168,304,167,399.7h-8.63s-11.8-66.53-7.68-92.86Z" style="fill: rgb(255, 195, 189); transform-origin: 158.908px 351.85px;" id="elf5hhr8fzcin" class="animable"></path><path d="M121.52,266.11s-3.21,18.68-3,35c0,0,18.5,10.14,53.19,6.23,0,0,2.49-30.42,2.31-47.67Z" style="fill: #294B98; transform-origin: 146.27px 283.953px;" id="elu2pobws3h6" class="animable"></path><path d="M121.52,266.11s-3.21,18.68-3,35c0,0,18.5,10.14,53.19,6.23,0,0,2.49-30.42,2.31-47.67Z" style="fill: #294B98; transform-origin: 146.27px 283.953px;" id="elgk4oqmo9whd" class="animable"></path><path d="M140.19,161.7s-11.38.53-11.83,23.3,7.21,25.35,10,26.5-.63-10.76-.63-10.76-3.82-20.81.36-28.37S141.87,161.3,140.19,161.7Z" style="fill: #294B98; transform-origin: 134.863px 186.624px;" id="elaupl3jcwvb4" class="animable"></path><g id="elyy9slol8fv"><path d="M140.19,161.7s-11.38.53-11.83,23.3,7.21,25.35,10,26.5-.63-10.76-.63-10.76-3.82-20.81.36-28.37S141.87,161.3,140.19,161.7Z" style="fill: rgb(255, 255, 255); opacity: 0.5; transform-origin: 134.863px 186.624px;" class="animable" id="eloyuryri4twe"></path></g><path d="M143.75,160.81c-3.62.11-13.52-.54-11.74,25.79s-12.09,80.76-12.09,80.76,21.34,7.82,41.26,8.18,15.3-41.63,15.66-52.3,9.07-41.4,1.45-55.34C176.18,164,172.45,160,143.75,160.81Z" style="fill: #294B98; transform-origin: 150.663px 218.123px;" id="el6u5gb6nthv6" class="animable"></path><g id="elplivbe8dqj8"><path d="M143.75,160.81c-3.62.11-13.52-.54-11.74,25.79s-12.09,80.76-12.09,80.76,21.34,7.82,41.26,8.18,15.3-41.63,15.66-52.3,9.07-41.4,1.45-55.34C176.18,164,172.45,160,143.75,160.81Z" style="fill: rgb(255, 255, 255); opacity: 0.7; transform-origin: 150.663px 218.123px;" class="animable" id="el0qw5b2txh0w"></path></g><polygon points="203.78 196.52 210.1 194.83 210.58 199.49 204.76 201.81 203.78 196.52" style="fill: rgb(255, 195, 189); transform-origin: 207.18px 198.32px;" id="elgv7rkmorfzj" class="animable"></polygon><path d="M168.57,164.63c3.22-2.16,8.89-2.4,12.18,7.65s6.49,25.53,10.85,25.61S204.23,196,204.23,196s2.4,1.6,2,5.87c0,0-11.73,5.24-20.36,4.35s-19.06-30.33-19.39-34.86C166.39,169.63,165.71,166.55,168.57,164.63Z" style="fill: #294B98; transform-origin: 186.31px 184.871px;" id="ela0wdn4a9glo" class="animable"></path><g id="el7vqud66cowh"><path d="M168.57,164.63c3.22-2.16,8.89-2.4,12.18,7.65s6.49,25.53,10.85,25.61S204.23,196,204.23,196s2.4,1.6,2,5.87c0,0-11.73,5.24-20.36,4.35s-19.06-30.33-19.39-34.86C166.39,169.63,165.71,166.55,168.57,164.63Z" style="fill: rgb(255, 255, 255); opacity: 0.8; transform-origin: 186.31px 184.871px;" class="animable" id="elq4po2rzltcf"></path></g><path d="M207.88,201.18l6-2.77,8.26-2.18a2.35,2.35,0,0,0,1.72-1.91l.84-5.39a2.36,2.36,0,0,0-1.12-2.39l-.08,0a2.35,2.35,0,0,0-2.82.32,10.07,10.07,0,0,1-2.43,1.86,5.83,5.83,0,0,1-1.77.1,2.43,2.43,0,0,0-2,1l-2.7,3.59-4.9,1.7A11.56,11.56,0,0,1,207.88,201.18Z" style="fill: #294B98; transform-origin: 215.804px 193.696px;" id="eluztr5uyoqyp" class="animable"></path><g id="elomfyec1lcnp"><path d="M207.88,201.18l6-2.77,8.26-2.18a2.35,2.35,0,0,0,1.72-1.91l.84-5.39a2.36,2.36,0,0,0-1.12-2.39l-.08,0a2.35,2.35,0,0,0-2.82.32,10.07,10.07,0,0,1-2.43,1.86,5.83,5.83,0,0,1-1.77.1,2.43,2.43,0,0,0-2,1l-2.7,3.59-4.9,1.7A11.56,11.56,0,0,1,207.88,201.18Z" style="fill: rgb(255, 255, 255); opacity: 0.3; transform-origin: 215.804px 193.696px;" class="animable" id="el8fzugjoh22j"></path></g><path d="M151.44,152.41s1.28-1.16,3.84.74c0,0,9.15-5.65,10.08-18.74,0,0,3.36-3.91,2.47-7.22,0,0,5.43-4.89.88-8.58a5.11,5.11,0,0,0-7.73.71s-14.43-6.18-16,8.25a17.15,17.15,0,0,0,0,16.83C150,153.34,151.44,152.41,151.44,152.41Z" style="fill: rgb(38, 50, 56); transform-origin: 156.65px 135.157px;" id="el0mw0y9ynig2a" class="animable"></path><path d="M152.13,152.11s-4.51-.24-3.91,2.36S149.44,152.75,152.13,152.11Z" style="fill: rgb(38, 50, 56); transform-origin: 150.148px 153.7px;" id="elnkydy92tefi" class="animable"></path><circle cx="146.64" cy="129.78" r="3.79" style="fill: #294B98; transform-origin: 146.64px 129.78px;" id="el5guv98nyya" class="animable"></circle><g id="eldq5pau454pg"><path d="M146.06,123.29a15.16,15.16,0,0,0-1,4.28,17.33,17.33,0,0,0-2.19,9.26,8,8,0,0,0,6.3-7.55A7.55,7.55,0,0,0,146.06,123.29Z" style="opacity: 0.4; transform-origin: 146.011px 130.06px;" class="animable" id="el4d3pyol6dyq"></path></g><g id="elln5coe8544"><circle cx="141.71" cy="127.64" r="7.43" style="fill: rgb(38, 50, 56); transform-origin: 141.71px 127.64px; transform: rotate(-45deg);" class="animable" id="elryy2ntt2onf"></circle></g><g id="elwxvxuxog50b"><path d="M150,313.19a133.23,133.23,0,0,0,17.93-.37l.06-5.08a130.7,130.7,0,0,1-17.52.4C150.27,309.71,150.11,311.4,150,313.19Z" style="opacity: 0.1; transform-origin: 158.995px 310.538px;" class="animable" id="el6342h1e20hr"></path></g><g id="elq19k6pfd14r"><path d="M123.74,308.42a85.66,85.66,0,0,0,16.89,3.92l.84-5a86.75,86.75,0,0,1-17.52-4l.59,2.36S124.23,306.67,123.74,308.42Z" style="opacity: 0.1; transform-origin: 132.605px 307.84px;" class="animable" id="elecmd2hdicd9"></path></g><path d="M167.19,397.7l-9.49.28a.77.77,0,0,0-.73.62l-1.48,7.77a1.26,1.26,0,0,0,1,1.49l.27,0c3.41-.17,6.45-.44,10.71-.57,5-.15,3.77.49,9.68.4,3.56-.06,4.09-4.12,2.57-4.28-6.93-.66-7.71-2.72-10.45-5.12A3,3,0,0,0,167.19,397.7Z" style="fill: rgb(38, 50, 56); transform-origin: 167.993px 402.774px;" id="elfogvjpfrof" class="animable"></path><path d="M126.67,397l-9.47-.53a.77.77,0,0,0-.78.55l-2.15,7.61a1.29,1.29,0,0,0,.87,1.58l.26.05c3.42.13,6.47.11,10.73.36,5,.28,3.71.81,9.6,1.23,3.56.24,4.43-3.76,2.94-4.05-6.85-1.25-7.45-3.38-10-6A3.07,3.07,0,0,0,126.67,397Z" style="fill: rgb(38, 50, 56); transform-origin: 126.794px 402.165px;" id="eli3i5sfm1vf8" class="animable"></path><path d="M160.52,135.66l14.82-.39s-.8,5.95-1.84,5.77-.68-4.36-.68-4.36l-10.94,0Z" style="fill: #294B98; transform-origin: 167.93px 138.157px;" id="elot4fkt04k1m" class="animable"></path><g id="ela5z7us4r2rv"><path d="M160.52,135.66l14.82-.39s-.8,5.95-1.84,5.77-.68-4.36-.68-4.36l-10.94,0Z" style="fill: rgb(255, 255, 255); opacity: 0.7; transform-origin: 167.93px 138.157px;" class="animable" id="elfxt500m4v5"></path></g><path d="M164.77,135.75a6.94,6.94,0,0,1,1.49,5.14c-.29,2.44-2.71,2.75-4.54,1.3-1.65-1.31-3.46-4.15-2.25-6.24A3.15,3.15,0,0,1,164.77,135.75Z" style="fill: rgb(255, 195, 189); transform-origin: 162.69px 138.73px;" id="els2syrrsdsg9" class="animable"></path><g id="elt9fchxk5lz"><path d="M163.44,229.16h12.33a0,0,0,0,1,0,0v.64a2.62,2.62,0,0,1-2.62,2.62h-7.1a2.62,2.62,0,0,1-2.62-2.62v-.64A0,0,0,0,1,163.44,229.16Z" style="fill: #294B98; transform-origin: 169.6px 230.79px; transform: rotate(7.42deg);" class="animable" id="eltf7jfj9nzzk"></path></g><g id="eljpj3j64854s"><path d="M163.44,229.16h12.33a0,0,0,0,1,0,0v.64a2.62,2.62,0,0,1-2.62,2.62h-7.1a2.62,2.62,0,0,1-2.62-2.62v-.64A0,0,0,0,1,163.44,229.16Z" style="fill: rgb(255, 255, 255); opacity: 0.6; transform-origin: 169.6px 230.79px; transform: rotate(7.42deg);" class="animable" id="el3gmnio6f5fi"></path></g></g><defs>     <filter id="active" height="200%">         <feMorphology in="SourceAlpha" result="DILATED" operator="dilate" radius="2"></feMorphology>                <feFlood flood-color="#32DFEC" flood-opacity="1" result="PINK"></feFlood>        <feComposite in="PINK" in2="DILATED" operator="in" result="OUTLINE"></feComposite>        <feMerge>            <feMergeNode in="OUTLINE"></feMergeNode>            <feMergeNode in="SourceGraphic"></feMergeNode>        </feMerge>    </filter>    <filter id="hover" height="200%">        <feMorphology in="SourceAlpha" result="DILATED" operator="dilate" radius="2"></feMorphology>                <feFlood flood-color="#ff0000" flood-opacity="0.5" result="PINK"></feFlood>        <feComposite in="PINK" in2="DILATED" operator="in" result="OUTLINE"></feComposite>        <feMerge>            <feMergeNode in="OUTLINE"></feMergeNode>            <feMergeNode in="SourceGraphic"></feMergeNode>        </feMerge>            <feColorMatrix type="matrix" values="0   0   0   0   0                0   1   0   0   0                0   0   0   0   0                0   0   0   1   0 "></feColorMatrix>    </filter></defs></svg>